<?xml version="1.0" encoding="UTF-8" standalone="no"?>
<svg
   id="Layer_2"
   data-name="Layer 2"
   viewBox="0 0 40.76 40.36"
   version="1.1"
   sodipodi:docname="Asset3.svg"
   inkscape:version="1.2.2 (b0a8486541, 2022-12-01)"
   xmlns:inkscape="http://www.inkscape.org/namespaces/inkscape"
   xmlns:sodipodi="http://sodipodi.sourceforge.net/DTD/sodipodi-0.dtd"
   xmlns="http://www.w3.org/2000/svg"
   xmlns:svg="http://www.w3.org/2000/svg">
  <sodipodi:namedview
     id="namedview350"
     pagecolor="#ffffff"
     bordercolor="#000000"
     borderopacity="0.25"
     inkscape:showpageshadow="2"
     inkscape:pageopacity="0.0"
     inkscape:pagecheckerboard="0"
     inkscape:deskcolor="#d1d1d1"
     showgrid="false"
     inkscape:zoom="21.729435"
     inkscape:cx="17.050605"
     inkscape:cy="20.272041"
     inkscape:window-width="2556"
     inkscape:window-height="1404"
     inkscape:window-x="0"
     inkscape:window-y="0"
     inkscape:window-maximized="1"
     inkscape:current-layer="Layer_2" />
  <defs
     id="defs334">
    <style
       id="style332">
      .cls-1 {
        fill: #fab835;
      }

      .cls-2 {
        fill: #fff;
      }

      .cls-3 {
        fill: #ed1c24;
      }

      .cls-4 {
        fill: #0b0b0b;
      }

      .cls-5 {
        fill: none;
        stroke: #27aae1;
        stroke-miterlimit: 10;
        stroke-width: 13px;
      }
    </style>
  </defs>
  <path
     style="color:#000000;fill:#27aae1;stroke-width:0.990177;stroke-miterlimit:10;-inkscape-stroke:none"
     d="m 0,0 v 12.872298 c 3.7855061,0 6.9022286,3.087019 6.9022286,7.308357 0,4.221337 -3.1167225,7.306421 -6.9022286,7.306421 v 12.872299 c 10.94831,0 19.774527,-9.210761 19.774527,-20.17872 C 19.774527,9.212695 10.94831,0 0,0 Z"
     id="path338" />
  <path
     class="cls-1"
     d="m 0,12.001331 c 4.5152063,0 8.1788605,3.663654 8.1788605,8.17886 0,4.515207 -3.6636542,8.178861 -8.1788605,8.178861"
     id="path340"
     style="stroke-width:0.990177" />
  <circle
     class="cls-4"
     cx="29.063465"
     cy="-30.880001"
     r="3.6800001"
     id="circle342"
     transform="rotate(90)" />
  <path
     class="cls-3"
     d="m 40.759998,19.3 c 0,-2.79 -0.48,-7.65 -3.68,-11.96 -4.45,-5.96 -11.32,-7.07 -13.72,-7.34 h 17.4 z"
     id="path344" />
</svg>
