<?xml version="1.0" encoding="UTF-8" standalone="no"?>
<svg
   id="Layer_2"
   data-name="Layer 2"
   viewBox="0 0 40.560002 40.27"
   version="1.1"
   sodipodi:docname="Asset2.svg"
   width="40.560001"
   height="40.27"
   inkscape:version="1.2.2 (b0a8486541, 2022-12-01)"
   xmlns:inkscape="http://www.inkscape.org/namespaces/inkscape"
   xmlns:sodipodi="http://sodipodi.sourceforge.net/DTD/sodipodi-0.dtd"
   xmlns="http://www.w3.org/2000/svg"
   xmlns:svg="http://www.w3.org/2000/svg">
  <sodipodi:namedview
     id="namedview213"
     pagecolor="#ffffff"
     bordercolor="#000000"
     borderopacity="0.25"
     inkscape:showpageshadow="2"
     inkscape:pageopacity="0.0"
     inkscape:pagecheckerboard="0"
     inkscape:deskcolor="#d1d1d1"
     showgrid="false"
     inkscape:zoom="30.676856"
     inkscape:cx="18.694875"
     inkscape:cy="17.390961"
     inkscape:window-width="2556"
     inkscape:window-height="1404"
     inkscape:window-x="0"
     inkscape:window-y="0"
     inkscape:window-maximized="1"
     inkscape:current-layer="Layer_2" />
  <defs
     id="defs197">
    <style
       id="style195">
      .cls-1 {
        fill: #f9ed32;
      }

      .cls-2 {
        fill: #fab835;
      }

      .cls-3 {
        fill: #fff;
      }

      .cls-4 {
        fill: #7f3f98;
      }

      .cls-5 {
        fill: #21409a;
      }
    </style>
  </defs>
  <polygon
     class="cls-2"
     points="20.55,40.39 0.17,40.39 0.17,20.27 "
     id="polygon201"
     transform="translate(-0.17,-0.1400004)" />
  <polygon
     class="cls-1"
     points="20.38,20.27 20.38,40.43 0,20.27 "
     id="polygon203"
     transform="translate(0,-0.1600004)" />
  <path
     class="cls-4"
     d="m 15.62332,6.62 c 4.261824,4.9 4.726383,10.87 4.75668,13.5 C 17.653241,20.02 11.725064,19.41 6.8269972,15.2 0.74733399,10 0.10099108,2.58 0,0 2.4944798,0.04 10.290991,0.5 15.62332,6.62 Z"
     id="path205"
     style="stroke-width:1.00494" />
  <path
     class="cls-5"
     d="m 35.850001,13.5 c 4.22,-4.9100004 4.68,-10.88 4.71,-13.5 -2.7,0.1 -8.57,0.71000001 -13.42,4.92 -6.01,5.21 -6.66,12.63 -6.76,15.21 2.47,-0.04 10.19,-0.5 15.47,-6.62 z"
     id="path207" />
</svg>
