<?xml version="1.0" encoding="UTF-8" standalone="no"?>
<!-- Created with Inkscape (http://www.inkscape.org/) -->

<svg
   width="54.466579mm"
   height="59.804691mm"
   viewBox="0 0 54.466579 59.804691"
   version="1.1"
   id="svg2383"
   inkscape:version="1.1.2 (0a00cf5339, 2022-02-04, custom)"
   sodipodi:docname="p_ico_crypto.svg"
   xmlns:inkscape="http://www.inkscape.org/namespaces/inkscape"
   xmlns:sodipodi="http://sodipodi.sourceforge.net/DTD/sodipodi-0.dtd"
   xmlns="http://www.w3.org/2000/svg"
   xmlns:svg="http://www.w3.org/2000/svg">
  <sodipodi:namedview
     id="namedview2385"
     pagecolor="#ffffff"
     bordercolor="#666666"
     borderopacity="1.0"
     inkscape:pageshadow="2"
     inkscape:pageopacity="0.0"
     inkscape:pagecheckerboard="0"
     inkscape:document-units="mm"
     showgrid="false"
     inkscape:zoom="0.80087682"
     inkscape:cx="-178.5543"
     inkscape:cy="159.20051"
     inkscape:window-width="3392"
     inkscape:window-height="1419"
     inkscape:window-x="2088"
     inkscape:window-y="8"
     inkscape:window-maximized="1"
     inkscape:current-layer="layer1" />
  <defs
     id="defs2380" />
  <g
     inkscape:label="Layer 1"
     inkscape:groupmode="layer"
     id="layer1"
     transform="translate(-152.36066,-106.37011)">
    <g
       id="g2018"
       transform="translate(105.72436,37.045891)">
      <g
         id="g4601"
         transform="translate(25.929167)"
         style="fill:#ffeeaa">
        <g
           id="g2959">
          <g
             id="path846"
             inkscape:transform-center-x="1.381035e-06"
             transform="matrix(0.26458333,0,0,0.26458333,-61.696786,29.084774)">
            <path
               style="color:#000000;fill-opacity:0.677688;stroke-width:9.33333;-inkscape-stroke:none"
               d="m 497.1075,314.12906 -82.79698,47.80286 -82.79699,-47.80286 v -95.60572 l 82.79699,-47.80286 82.79698,47.80286 z"
               id="path948" />
            <path
               style="color:#000000;fill:#000000;-inkscape-stroke:none"
               d="m 414.31055,165.33203 -87.46289,50.49609 v 100.9961 l 87.46289,50.49609 87.46289,-50.49609 v -2.69531 -98.30079 z m 0,10.77734 78.13086,45.10743 v 90.21679 l -78.13086,45.10938 -78.13086,-45.10742 V 221.2168 Z"
               id="path950" />
          </g>
          <g
             id="path1004">
            <path
               style="color:#000000;fill:#ffd42a;stroke-width:2.46944;-inkscape-stroke:none"
               d="m 51.538642,74.262367 a 3.7029412,3.7029412 0 0 1 -3.702941,3.702941 3.7029412,3.7029412 0 0 1 -3.702941,-3.702941 3.7029412,3.7029412 0 0 1 3.702941,-3.702941 3.7029412,3.7029412 0 0 1 3.702941,3.702941 z"
               id="path954" />
            <path
               style="color:#000000;fill:#000000;-inkscape-stroke:none"
               d="m 47.835937,69.324219 c -2.712367,0 -4.937499,2.225132 -4.9375,4.9375 10e-7,2.712367 2.225133,4.9375 4.9375,4.9375 2.712368,0 4.9375,-2.225133 4.9375,-4.9375 0,-2.712368 -2.225132,-4.9375 -4.9375,-4.9375 z m 0,2.470703 c 1.377785,0 2.46875,1.089012 2.46875,2.466797 0,1.377784 -1.090965,2.46875 -2.46875,2.46875 -1.377784,0 -2.468749,-1.090966 -2.46875,-2.46875 10e-7,-1.377785 1.090966,-2.466797 2.46875,-2.466797 z"
               id="path956" />
          </g>
          <g
             id="path1004-3">
            <path
               style="color:#000000;fill:#ffd42a;stroke-width:2.46944;-inkscape-stroke:none"
               d="M 30.005031,86.89666 A 3.7029412,3.7029412 0 0 1 26.30209,90.599601 3.7029412,3.7029412 0 0 1 22.599149,86.89666 3.7029412,3.7029412 0 0 1 26.30209,83.193719 3.7029412,3.7029412 0 0 1 30.005031,86.89666 Z"
               id="path960" />
            <path
               style="color:#000000;fill:#000000;-inkscape-stroke:none"
               d="m 26.302734,81.958984 c -2.712367,10e-7 -4.937499,2.225133 -4.9375,4.9375 10e-7,2.712368 2.225133,4.9375 4.9375,4.9375 2.712368,0 4.9375,-2.225132 4.9375,-4.9375 0,-2.712367 -2.225132,-4.937499 -4.9375,-4.9375 z m 0,2.46875 c 1.377785,0 2.466797,1.090966 2.466797,2.46875 0,1.377785 -1.089012,2.46875 -2.466797,2.46875 -1.377784,0 -2.46875,-1.090965 -2.46875,-2.46875 0,-1.377784 1.090966,-2.46875 2.46875,-2.46875 z"
               id="path962" />
          </g>
          <g
             id="path1004-3-6">
            <path
               style="color:#000000;fill:#ffd42a;stroke-width:2.46944;-inkscape-stroke:none"
               d="m 29.924445,111.83366 a 3.7029412,3.7029412 0 0 1 -3.702941,3.70294 3.7029412,3.7029412 0 0 1 -3.702941,-3.70294 3.7029412,3.7029412 0 0 1 3.702941,-3.70294 3.7029412,3.7029412 0 0 1 3.702941,3.70294 z"
               id="path966" />
            <path
               style="color:#000000;fill:#000000;-inkscape-stroke:none"
               d="m 26.220703,106.89648 c -2.712367,0 -4.937499,2.22514 -4.9375,4.9375 1e-6,2.71237 2.225133,4.9375 4.9375,4.9375 2.712367,0 4.937499,-2.22513 4.9375,-4.9375 -1e-6,-2.71236 -2.225133,-4.9375 -4.9375,-4.9375 z m 0,2.46875 c 1.377784,0 2.46875,1.09097 2.46875,2.46875 0,1.37779 -1.090966,2.46875 -2.46875,2.46875 -1.377784,0 -2.466796,-1.09096 -2.466797,-2.46875 1e-6,-1.37778 1.089013,-2.46875 2.466797,-2.46875 z"
               id="path968" />
          </g>
          <g
             id="path1004-3-7">
            <path
               style="color:#000000;fill:#ffd42a;stroke-width:2.46944;-inkscape-stroke:none"
               d="m 51.496825,124.19092 a 3.7029412,3.7029412 0 0 1 -3.702941,3.70294 3.7029412,3.7029412 0 0 1 -3.702941,-3.70294 3.7029412,3.7029412 0 0 1 3.702941,-3.70294 3.7029412,3.7029412 0 0 1 3.702941,3.70294 z"
               id="path972" />
            <path
               style="color:#000000;fill:#000000;-inkscape-stroke:none"
               d="m 47.792969,119.25391 c -2.712367,0 -4.937499,2.22513 -4.9375,4.9375 10e-7,2.71236 2.225133,4.9375 4.9375,4.9375 2.712366,0 4.939452,-2.22514 4.939453,-4.9375 -10e-7,-2.71237 -2.227087,-4.9375 -4.939453,-4.9375 z m 0,2.46875 c 1.377784,0 2.468749,1.09096 2.46875,2.46875 -10e-7,1.37778 -1.090966,2.46679 -2.46875,2.46679 -1.377784,0 -2.466797,-1.08901 -2.466797,-2.46679 0,-1.37779 1.089013,-2.46875 2.466797,-2.46875 z"
               id="path974" />
          </g>
          <g
             id="path1004-3-5">
            <path
               style="color:#000000;fill:#ffd42a;stroke-width:2.46944;-inkscape-stroke:none"
               d="m 73.362983,111.95554 a 3.7029412,3.7029412 0 0 1 -3.702941,3.70294 3.7029412,3.7029412 0 0 1 -3.702941,-3.70294 3.7029412,3.7029412 0 0 1 3.702941,-3.70294 3.7029412,3.7029412 0 0 1 3.702941,3.70294 z"
               id="path978" />
            <path
               style="color:#000000;fill:#000000;-inkscape-stroke:none"
               d="m 69.660156,107.01758 c -2.712366,0 -4.937499,2.22513 -4.9375,4.9375 10e-7,2.71236 2.225134,4.9375 4.9375,4.9375 2.712367,0 4.937499,-2.22514 4.9375,-4.9375 -10e-7,-2.71237 -2.225133,-4.9375 -4.9375,-4.9375 z m 0,2.4707 c 1.377784,0 2.46875,1.08901 2.46875,2.4668 0,1.37778 -1.090966,2.46875 -2.46875,2.46875 -1.377784,0 -2.468749,-1.09097 -2.46875,-2.46875 10e-7,-1.37779 1.090966,-2.4668 2.46875,-2.4668 z"
               id="path980" />
          </g>
          <g
             id="path1004-3-3">
            <path
               style="color:#000000;fill:#ffd42a;stroke-width:2.46944;-inkscape-stroke:none"
               d="m 73.363883,86.643578 a 3.7029412,3.7029412 0 0 1 -3.702941,3.702941 3.7029412,3.7029412 0 0 1 -3.702941,-3.702941 3.7029412,3.7029412 0 0 1 3.702941,-3.702942 3.7029412,3.7029412 0 0 1 3.702941,3.702942 z"
               id="path984" />
            <path
               style="color:#000000;fill:#000000;-inkscape-stroke:none"
               d="m 69.660156,81.705078 c -2.712368,0 -4.9375,2.227085 -4.9375,4.939453 0,2.712368 2.225133,4.9375 4.9375,4.9375 2.712368,0 4.9375,-2.225132 4.9375,-4.9375 10e-7,-2.712368 -2.225132,-4.939453 -4.9375,-4.939453 z m 0,2.470703 c 1.377785,0 2.468751,1.090966 2.46875,2.46875 0,1.377785 -1.090965,2.466797 -2.46875,2.466797 -1.377784,0 -2.466797,-1.089012 -2.466797,-2.466797 0,-1.377784 1.089013,-2.46875 2.466797,-2.46875 z"
               id="path986" />
          </g>
        </g>
        <g
           id="g2981">
          <g
             id="path1676">
            <path
               style="color:#000000;stroke-width:2.46944;stroke-linecap:round;stroke-linejoin:round;-inkscape-stroke:none"
               d="m 36.980243,109.47154 -0.02686,7.71018 v 0"
               id="path990" />
            <path
               style="color:#000000;fill:#000000;stroke-linecap:round;stroke-linejoin:round;-inkscape-stroke:none"
               d="m 36.984375,108.23633 a 1.23472,1.23472 0 0 0 -1.238281,1.23047 l -0.02734,7.71093 a 1.23472,1.23472 0 0 0 1.230469,1.23829 1.23472,1.23472 0 0 0 1.238281,-1.23047 l 0.02734,-7.70899 a 1.23472,1.23472 0 0 0 -1.230469,-1.24023 z"
               id="path992" />
          </g>
          <g
             id="path1676-02">
            <path
               style="color:#000000;stroke-width:2.46944;stroke-linecap:round;stroke-linejoin:round;-inkscape-stroke:none"
               d="m 29.442925,96.652941 -0.02686,7.710159 v 0"
               id="path996" />
            <path
               style="color:#000000;fill:#000000;stroke-linecap:round;stroke-linejoin:round;-inkscape-stroke:none"
               d="m 29.447266,95.417969 a 1.23472,1.23472 0 0 0 -1.238282,1.230468 l -0.02734,7.710943 a 1.23472,1.23472 0 0 0 1.230468,1.23828 1.23472,1.23472 0 0 0 1.238282,-1.23047 l 0.02734,-7.708987 a 1.23472,1.23472 0 0 0 -1.230468,-1.240234 z"
               id="path998" />
          </g>
          <g
             id="path1676-1">
            <path
               style="color:#000000;stroke-width:2.46944;stroke-linecap:round;stroke-linejoin:round;-inkscape-stroke:none"
               d="m 56.583657,107.08306 -0.02686,7.71018 v 0"
               id="path1002" />
            <path
               style="color:#000000;fill:#000000;stroke-linecap:round;stroke-linejoin:round;-inkscape-stroke:none"
               d="m 56.587891,105.84766 a 1.23472,1.23472 0 0 0 -1.238282,1.23047 l -0.02734,7.71093 a 1.23472,1.23472 0 0 0 1.230468,1.23828 1.23472,1.23472 0 0 0 1.238282,-1.23046 l 0.02734,-7.70899 a 1.23472,1.23472 0 0 0 -1.230468,-1.24023 z"
               id="path1005" />
          </g>
          <g
             id="path1676-0">
            <path
               style="color:#000000;stroke-width:2.46944;stroke-linecap:round;stroke-linejoin:round;-inkscape-stroke:none"
               d="m 48.966543,108.74793 -0.02686,7.71018 v 0"
               id="path1009" />
            <path
               style="color:#000000;fill:#000000;stroke-linecap:round;stroke-linejoin:round;-inkscape-stroke:none"
               d="m 48.970703,107.51367 a 1.23472,1.23472 0 0 0 -1.238281,1.23047 l -0.02734,7.70899 a 1.23472,1.23472 0 0 0 1.230469,1.24023 1.23472,1.23472 0 0 0 1.238281,-1.23047 l 0.02734,-7.71094 a 1.23472,1.23472 0 0 0 -1.230469,-1.23828 z"
               id="path1011" />
          </g>
          <g
             id="path1676-2">
            <path
               style="color:#000000;stroke-width:2.46944;stroke-linecap:round;stroke-linejoin:round;-inkscape-stroke:none"
               d="m 41.057932,105.32065 -0.02686,4.46153 v 0"
               id="path1015" />
            <path
               style="color:#000000;fill:#000000;stroke-linecap:round;stroke-linejoin:round;-inkscape-stroke:none"
               d="m 41.064453,104.08594 a 1.23472,1.23472 0 0 0 -1.242187,1.22656 l -0.02539,4.46289 a 1.23472,1.23472 0 0 0 1.226562,1.24219 1.23472,1.23472 0 0 0 1.242188,-1.22852 l 0.02734,-4.46093 a 1.23472,1.23472 0 0 0 -1.228516,-1.24219 z"
               id="path1017" />
          </g>
          <g
             id="path1676-2-2">
            <path
               style="color:#000000;stroke-width:2.46944;stroke-linecap:round;stroke-linejoin:round;-inkscape-stroke:none"
               d="m 33.249955,98.954806 -0.02686,4.461524 v 0"
               id="path1021" />
            <path
               style="color:#000000;fill:#000000;stroke-linecap:round;stroke-linejoin:round;-inkscape-stroke:none"
               d="m 33.257812,97.720703 a 1.23472,1.23472 0 0 0 -1.242187,1.226563 l -0.02734,4.460934 a 1.23472,1.23472 0 0 0 1.226563,1.24219 1.23472,1.23472 0 0 0 1.242187,-1.22656 l 0.02734,-4.460939 a 1.23472,1.23472 0 0 0 -1.226563,-1.242188 z"
               id="path1023" />
          </g>
          <g
             id="path1676-2-6">
            <path
               style="color:#000000;stroke-width:2.46944;stroke-linecap:round;stroke-linejoin:round;-inkscape-stroke:none"
               d="m 48.995434,101.7016 -0.02686,2.27774 v 0"
               id="path1027" />
            <path
               style="color:#000000;fill:#000000;stroke-linecap:round;stroke-linejoin:round;-inkscape-stroke:none"
               d="m 49.009766,100.4668 a 1.23472,1.23472 0 0 0 -1.248047,1.2207 l -0.02734,2.27734 a 1.23472,1.23472 0 0 0 1.21875,1.25 1.23472,1.23472 0 0 0 1.25,-1.2207 l 0.02734,-2.27734 a 1.23472,1.23472 0 0 0 -1.220703,-1.25 z"
               id="path1029" />
          </g>
          <g
             id="path1676-2-6-6">
            <path
               style="color:#000000;stroke-width:2.46944;stroke-linecap:round;stroke-linejoin:round;-inkscape-stroke:none"
               d="m 52.826211,107.63387 -0.0269,2.27774 v 0"
               id="path1033" />
            <path
               style="color:#000000;fill:#000000;stroke-linecap:round;stroke-linejoin:round;-inkscape-stroke:none"
               d="m 52.839844,106.39844 a 1.23472,1.23472 0 0 0 -1.248047,1.2207 l -0.02734,2.27734 a 1.23472,1.23472 0 0 0 1.220703,1.25 1.23472,1.23472 0 0 0 1.248047,-1.2207 l 0.02734,-2.27734 a 1.23472,1.23472 0 0 0 -1.220703,-1.25 z"
               id="path1035" />
          </g>
          <g
             id="path1676-2-9">
            <path
               style="color:#000000;stroke-width:2.46944;stroke-linecap:round;stroke-linejoin:round;-inkscape-stroke:none"
               d="m 41.057932,99.548713 -0.02686,0.505787 v 0"
               id="path1039" />
            <path
               style="color:#000000;fill:#000000;stroke-linecap:round;stroke-linejoin:round;-inkscape-stroke:none"
               d="m 41.123047,98.316406 a 1.23472,1.23472 0 0 0 -1.298828,1.166016 l -0.02539,0.505859 a 1.23472,1.23472 0 0 0 1.166016,1.298829 1.23472,1.23472 0 0 0 1.298828,-1.16797 l 0.02734,-0.505859 a 1.23472,1.23472 0 0 0 -1.167969,-1.296875 z"
               id="path1041" />
          </g>
          <g
             id="path1676-2-9-3">
            <path
               style="color:#000000;stroke-width:2.46944;stroke-linecap:round;stroke-linejoin:round;-inkscape-stroke:none"
               d="m 36.977828,96.101793 -0.02686,0.505791 v 0"
               id="path1045" />
            <path
               style="color:#000000;fill:#000000;stroke-linecap:round;stroke-linejoin:round;-inkscape-stroke:none"
               d="m 37.042969,94.869141 a 1.23472,1.23472 0 0 0 -1.298828,1.167968 l -0.02539,0.50586 a 1.23472,1.23472 0 0 0 1.166016,1.296875 1.23472,1.23472 0 0 0 1.298828,-1.166016 l 0.02734,-0.505859 a 1.23472,1.23472 0 0 0 -1.167968,-1.298828 z"
               id="path1047" />
          </g>
          <g
             id="path1676-2-9-8">
            <path
               style="color:#000000;stroke-width:2.46944;stroke-linecap:round;stroke-linejoin:round;-inkscape-stroke:none"
               d="m 52.977514,101.8625 -0.02686,0.50579 v 0"
               id="path1051" />
            <path
               style="color:#000000;fill:#000000;stroke-linecap:round;stroke-linejoin:round;-inkscape-stroke:none"
               d="m 53.042969,100.62891 a 1.23472,1.23472 0 0 0 -1.298828,1.16797 l -0.02734,0.50585 a 1.23472,1.23472 0 0 0 1.167969,1.29883 1.23472,1.23472 0 0 0 1.298828,-1.16797 l 0.02734,-0.50586 a 1.23472,1.23472 0 0 0 -1.167969,-1.29882 z"
               id="path1053" />
          </g>
          <g
             id="path1676-2-9-8-7">
            <path
               style="color:#000000;stroke-width:2.46944;stroke-linecap:round;stroke-linejoin:round;-inkscape-stroke:none"
               d="m 60.385849,106.62503 -0.02686,0.50579 v 0"
               id="path1057" />
            <path
               style="color:#000000;fill:#000000;stroke-linecap:round;stroke-linejoin:round;-inkscape-stroke:none"
               d="m 60.451172,105.39258 a 1.23472,1.23472 0 0 0 -1.298828,1.16601 l -0.02539,0.50586 a 1.23472,1.23472 0 0 0 1.166016,1.29883 1.23472,1.23472 0 0 0 1.298828,-1.16601 l 0.02734,-0.50586 a 1.23472,1.23472 0 0 0 -1.167969,-1.29883 z"
               id="path1059" />
          </g>
          <g
             id="path1676-2-0">
            <path
               style="color:#000000;stroke-width:2.46944;stroke-linecap:round;stroke-linejoin:round;-inkscape-stroke:none"
               d="m 41.057932,114.42675 -0.02686,5.40966 v 0"
               id="path1063" />
            <path
               style="color:#000000;fill:#000000;stroke-linecap:round;stroke-linejoin:round;-inkscape-stroke:none"
               d="m 41.064453,113.19141 a 1.23472,1.23472 0 0 0 -1.242187,1.22851 l -0.02539,5.41016 a 1.23472,1.23472 0 0 0 1.228516,1.24023 1.23472,1.23472 0 0 0 1.240234,-1.22851 l 0.02734,-5.40821 a 1.23472,1.23472 0 0 0 -1.228516,-1.24218 z"
               id="path1065" />
          </g>
          <g
             id="path1676-9">
            <path
               style="color:#000000;stroke-width:2.46944;stroke-linecap:round;stroke-linejoin:round;-inkscape-stroke:none"
               d="m 44.882742,112.0484 -0.02686,4.8384 v 0"
               id="path1069" />
            <path
               style="color:#000000;fill:#000000;stroke-linecap:round;stroke-linejoin:round;-inkscape-stroke:none"
               d="m 44.888672,110.81445 a 1.23472,1.23472 0 0 0 -1.240235,1.22657 l -0.02734,4.83984 a 1.23472,1.23472 0 0 0 1.228515,1.24023 1.23472,1.23472 0 0 0 1.240235,-1.22656 l 0.02734,-4.83984 a 1.23472,1.23472 0 0 0 -1.228515,-1.24024 z"
               id="path1071" />
          </g>
          <g
             id="path1676-2-1">
            <path
               style="color:#000000;stroke-width:2.46944;stroke-linecap:round;stroke-linejoin:round;-inkscape-stroke:none"
               d="m 44.727098,101.96095 -0.02686,5.40966 v 0"
               id="path1075" />
            <path
               style="color:#000000;fill:#000000;stroke-linecap:round;stroke-linejoin:round;-inkscape-stroke:none"
               d="m 44.732422,100.72656 a 1.23472,1.23472 0 0 0 -1.240235,1.22852 l -0.02734,5.41015 a 1.23472,1.23472 0 0 0 1.228515,1.24024 1.23472,1.23472 0 0 0 1.242188,-1.22852 l 0.02539,-5.41015 a 1.23472,1.23472 0 0 0 -1.228515,-1.24024 z"
               id="path1077" />
          </g>
          <g
             id="path1676-2-1-2">
            <path
               style="color:#000000;stroke-width:2.46944;stroke-linecap:round;stroke-linejoin:round;-inkscape-stroke:none"
               d="m 52.826171,115.5561 -0.02686,5.40966 v 0"
               id="path1081" />
            <path
               style="color:#000000;fill:#000000;stroke-linecap:round;stroke-linejoin:round;-inkscape-stroke:none"
               d="m 52.832031,114.32227 a 1.23472,1.23472 0 0 0 -1.240234,1.22851 l -0.02734,5.4082 a 1.23472,1.23472 0 0 0 1.228516,1.24219 1.23472,1.23472 0 0 0 1.240234,-1.22851 l 0.02734,-5.41016 a 1.23472,1.23472 0 0 0 -1.228516,-1.24023 z"
               id="path1083" />
          </g>
          <g
             id="path1676-2-1-3">
            <path
               style="color:#000000;stroke-width:2.46944;stroke-linecap:round;stroke-linejoin:round;-inkscape-stroke:none"
               d="m 37.05108,101.35022 -0.02686,2.11944 v 0"
               id="path1087" />
            <path
               style="color:#000000;fill:#000000;stroke-linecap:round;stroke-linejoin:round;-inkscape-stroke:none"
               d="m 37.066406,100.11523 a 1.23472,1.23472 0 0 0 -1.25,1.21875 l -0.02734,2.11915 a 1.23472,1.23472 0 0 0 1.21875,1.25195 1.23472,1.23472 0 0 0 1.251954,-1.2207 l 0.02539,-2.11915 a 1.23472,1.23472 0 0 0 -1.21875,-1.25 z"
               id="path1089" />
          </g>
          <g
             id="path1676-2-1-3-6">
            <path
               style="color:#000000;stroke-width:2.46944;stroke-linecap:round;stroke-linejoin:round;-inkscape-stroke:none"
               d="m 33.132816,108.03779 -0.02686,2.11944 v 0"
               id="path1093" />
            <path
               style="color:#000000;fill:#000000;stroke-linecap:round;stroke-linejoin:round;-inkscape-stroke:none"
               d="m 33.148437,106.80273 a 1.23472,1.23472 0 0 0 -1.25,1.21875 l -0.02734,2.11915 a 1.23472,1.23472 0 0 0 1.21875,1.25195 1.23472,1.23472 0 0 0 1.25,-1.21875 l 0.02734,-2.1211 a 1.23472,1.23472 0 0 0 -1.21875,-1.25 z"
               id="path1095" />
          </g>
          <g
             id="path1676-2-1-3-6-7">
            <path
               style="color:#000000;stroke-width:2.46944;stroke-linecap:round;stroke-linejoin:round;-inkscape-stroke:none"
               d="m 33.243229,92.262701 -0.02686,2.11944 v 0"
               id="path1099" />
            <path
               style="color:#000000;fill:#000000;stroke-linecap:round;stroke-linejoin:round;-inkscape-stroke:none"
               d="m 33.259766,91.027344 a 1.23472,1.23472 0 0 0 -1.251954,1.21875 l -0.02539,2.121093 a 1.23472,1.23472 0 0 0 1.21875,1.25 1.23472,1.23472 0 0 0 1.25,-1.21875 l 0.02734,-2.11914 a 1.23472,1.23472 0 0 0 -1.21875,-1.251953 z"
               id="path1101" />
          </g>
          <g
             id="path1676-2-1-3-6-9">
            <path
               style="color:#000000;stroke-width:2.46944;stroke-linecap:round;stroke-linejoin:round;-inkscape-stroke:none"
               d="m 60.349753,114.4686 -0.02686,2.11943 v 0"
               id="path1105" />
            <path
               style="color:#000000;fill:#000000;stroke-linecap:round;stroke-linejoin:round;-inkscape-stroke:none"
               d="m 60.365234,113.23438 a 1.23472,1.23472 0 0 0 -1.25,1.21875 l -0.02734,2.11914 a 1.23472,1.23472 0 0 0 1.21875,1.25 1.23472,1.23472 0 0 0 1.25,-1.21875 l 0.02734,-2.11914 a 1.23472,1.23472 0 0 0 -1.21875,-1.25 z"
               id="path1107" />
          </g>
        </g>
      </g>
    </g>
  </g>
</svg>
