<?xml version="1.0" encoding="UTF-8" standalone="no"?>
<svg
   viewBox="0 0 448 512"
   version="1.1"
   id="svg1"
   sodipodi:docname="ellipsis_w.svg"
   inkscape:version="1.4.1 (93de688d07, 2025-03-30)"
   xmlns:inkscape="http://www.inkscape.org/namespaces/inkscape"
   xmlns:sodipodi="http://sodipodi.sourceforge.net/DTD/sodipodi-0.dtd"
   xmlns="http://www.w3.org/2000/svg"
   xmlns:svg="http://www.w3.org/2000/svg">
  <defs
     id="defs1" />
  <sodipodi:namedview
     id="namedview1"
     pagecolor="#ffffff"
     bordercolor="#000000"
     borderopacity="0.25"
     inkscape:showpageshadow="2"
     inkscape:pageopacity="0.0"
     inkscape:pagecheckerboard="0"
     inkscape:deskcolor="#d1d1d1"
     inkscape:zoom="2.4042969"
     inkscape:cx="224.80585"
     inkscape:cy="256"
     inkscape:window-width="3374"
     inkscape:window-height="1416"
     inkscape:window-x="0"
     inkscape:window-y="0"
     inkscape:window-maximized="1"
     inkscape:current-layer="path1" />
  <!--!Font Awesome Free 6.7.2 by @fontawesome - https://fontawesome.com License - https://fontawesome.com/license/free Copyright 2025 Fonticons, Inc.-->
  <g
     id="path1"
     style="opacity:1;fill:#ff0000">
    <path
       style="baseline-shift:baseline;display:inline;overflow:visible;vector-effect:none;fill:#ffffff;enable-background:accumulate;stop-color:#000000;stop-opacity:1"
       d="m 58,201.40039 c -30.071828,0 -54.5996094,24.52776 -54.5996094,54.59961 0,30.07185 24.5277814,54.59961 54.5996094,54.59961 30.071828,0 54.59961,-24.52776 54.59961,-54.59961 0,-30.07185 -24.527782,-54.59961 -54.59961,-54.59961 z m 166,0 c -30.07183,0 -54.59961,24.52776 -54.59961,54.59961 0,30.07185 24.52778,54.59961 54.59961,54.59961 30.07183,0 54.59961,-24.52776 54.59961,-54.59961 0,-30.07185 -24.52778,-54.59961 -54.59961,-54.59961 z m 166,0 c -30.07185,0 -54.59961,24.52778 -54.59961,54.59961 0,30.07183 24.52776,54.59961 54.59961,54.59961 30.07185,0 54.59961,-24.52778 54.59961,-54.59961 0,-30.07183 -24.52776,-54.59961 -54.59961,-54.59961 z"
       id="path3"
       sodipodi:nodetypes="sssssssssssssss" />
  </g>
</svg>
