<?xml version="1.0" encoding="UTF-8" standalone="no"?>
<!-- Created with Inkscape (http://www.inkscape.org/) -->

<svg
   width="54.466579mm"
   height="59.804691mm"
   viewBox="0 0 54.466579 59.804691"
   version="1.1"
   id="svg2383"
   sodipodi:docname="p_ico_dataviz.svg"
   inkscape:version="1.1.2 (0a00cf5339, 2022-02-04, custom)"
   xmlns:inkscape="http://www.inkscape.org/namespaces/inkscape"
   xmlns:sodipodi="http://sodipodi.sourceforge.net/DTD/sodipodi-0.dtd"
   xmlns="http://www.w3.org/2000/svg"
   xmlns:svg="http://www.w3.org/2000/svg">
  <sodipodi:namedview
     id="namedview2385"
     pagecolor="#ffffff"
     bordercolor="#666666"
     borderopacity="1.0"
     inkscape:pageshadow="2"
     inkscape:pageopacity="0.0"
     inkscape:pagecheckerboard="0"
     inkscape:document-units="mm"
     showgrid="false"
     inkscape:zoom="0.80087682"
     inkscape:cx="-178.5543"
     inkscape:cy="159.20051"
     inkscape:window-width="3392"
     inkscape:window-height="1419"
     inkscape:window-x="2088"
     inkscape:window-y="8"
     inkscape:window-maximized="1"
     inkscape:current-layer="layer1" />
  <defs
     id="defs2380" />
  <g
     inkscape:label="Layer 1"
     inkscape:groupmode="layer"
     id="layer1"
     transform="translate(-152.36066,-106.37011)">
    <g
       id="g1932"
       transform="translate(37.070063,37.412104)">
      <g
         id="g4620"
         transform="translate(25.929167)"
         style="fill:#afdde9">
        <g
           id="path2722">
          <path
             style="color:#000000;stroke-width:2.46944;stroke-linecap:round;stroke-linejoin:round;-inkscape-stroke:none"
             d="M 141.60528,98.860649 A 25.010462,25.010462 0 0 1 116.59482,123.87111 25.010462,25.010462 0 0 1 91.584356,98.860649 25.010462,25.010462 0 0 1 116.59482,73.850187 25.010462,25.010462 0 0 1 141.60528,98.860649 Z"
             id="path1210" />
          <path
             style="color:#000000;fill:#000000;stroke-linecap:round;stroke-linejoin:round;-inkscape-stroke:none"
             d="m 116.5957,72.615234 c -14.48017,-10e-7 -26.246091,11.765919 -26.246091,26.246094 10e-7,14.480172 11.765921,26.244142 26.246091,26.244142 14.48018,0 26.24414,-11.76397 26.24414,-26.244142 0,-14.480174 -11.76396,-26.246092 -26.24414,-26.246094 z m 0,2.46875 c 13.14559,10e-7 23.77539,10.631753 23.77539,23.777344 0,13.145592 -10.6298,23.775392 -23.77539,23.775392 -13.14559,0 -23.77734,-10.6298 -23.777341,-23.775392 0,-13.145592 10.631751,-23.777345 23.777341,-23.777344 z"
             id="path1212" />
        </g>
        <g
           id="path1676-92">
          <path
             style="color:#000000;stroke-width:2.46944;stroke-linecap:round;stroke-linejoin:round;-inkscape-stroke:none"
             d="m 103.52855,108.65888 -0.0269,7.71017 v 0"
             id="path1216" />
          <path
             style="color:#000000;fill:#000000;stroke-linecap:round;stroke-linejoin:round;-inkscape-stroke:none"
             d="m 103.5332,107.42383 a 1.23472,1.23472 0 0 0 -1.24023,1.23047 l -0.0254,7.71093 a 1.23472,1.23472 0 0 0 1.23047,1.23829 1.23472,1.23472 0 0 0 1.23828,-1.23047 l 0.0273,-7.70899 a 1.23472,1.23472 0 0 0 -1.23047,-1.24023 z"
             id="path1218" />
        </g>
        <g
           id="path1676-02-2">
          <path
             style="color:#000000;stroke-width:2.46944;stroke-linecap:round;stroke-linejoin:round;-inkscape-stroke:none"
             d="m 95.991235,98.486137 -0.02686,7.710163 v 0"
             id="path1222" />
          <path
             style="color:#000000;fill:#000000;stroke-linecap:round;stroke-linejoin:round;-inkscape-stroke:none"
             d="m 95.996094,97.251953 a 1.23472,1.23472 0 0 0 -1.240235,1.230469 l -0.02539,7.708988 a 1.23472,1.23472 0 0 0 1.230468,1.24023 1.23472,1.23472 0 0 0 1.238282,-1.23047 l 0.02734,-7.710936 a 1.23472,1.23472 0 0 0 -1.230468,-1.238281 z"
             id="path1224" />
        </g>
        <g
           id="path1676-0-9">
          <path
             style="color:#000000;stroke-width:2.46944;stroke-linecap:round;stroke-linejoin:round;-inkscape-stroke:none"
             d="m 115.51485,110.5811 -0.0269,7.71018 v 0"
             id="path1228" />
          <path
             style="color:#000000;fill:#000000;stroke-linecap:round;stroke-linejoin:round;-inkscape-stroke:none"
             d="m 115.51953,109.3457 a 1.23472,1.23472 0 0 0 -1.24023,1.23047 l -0.0254,7.71094 a 1.23472,1.23472 0 0 0 1.23047,1.23828 1.23472,1.23472 0 0 0 1.23828,-1.23047 l 0.0273,-7.70898 a 1.23472,1.23472 0 0 0 -1.23047,-1.24024 z"
             id="path1230" />
        </g>
        <g
           id="path1676-2-7">
          <path
             style="color:#000000;stroke-width:2.46944;stroke-linecap:round;stroke-linejoin:round;-inkscape-stroke:none"
             d="m 107.60624,107.15384 -0.0269,4.46151 v 0"
             id="path1234" />
          <path
             style="color:#000000;fill:#000000;stroke-linecap:round;stroke-linejoin:round;-inkscape-stroke:none"
             d="m 107.61328,105.91992 a 1.23472,1.23472 0 0 0 -1.24219,1.22656 l -0.0273,4.46094 a 1.23472,1.23472 0 0 0 1.22852,1.24219 1.23472,1.23472 0 0 0 1.24218,-1.22656 l 0.0274,-4.46094 a 1.23472,1.23472 0 0 0 -1.22852,-1.24219 z"
             id="path1236" />
        </g>
        <g
           id="path1676-2-2-3">
          <path
             style="color:#000000;stroke-width:2.46944;stroke-linecap:round;stroke-linejoin:round;-inkscape-stroke:none"
             d="m 99.798265,100.788 -0.02686,4.46153 v 0"
             id="path1240" />
          <path
             style="color:#000000;fill:#000000;stroke-linecap:round;stroke-linejoin:round;-inkscape-stroke:none"
             d="m 99.806641,99.552734 a 1.23472,1.23472 0 0 0 -1.242188,1.228516 l -0.02734,4.46094 a 1.23472,1.23472 0 0 0 1.226563,1.24219 1.23472,1.23472 0 0 0 1.242184,-1.22657 l 0.0273,-4.46289 a 1.23472,1.23472 0 0 0 -1.226555,-1.242186 z"
             id="path1242" />
        </g>
        <g
           id="path1676-2-6-61">
          <path
             style="color:#000000;stroke-width:2.46944;stroke-linecap:round;stroke-linejoin:round;-inkscape-stroke:none"
             d="m 119.77708,111.4723 -0.0269,2.27775 v 0"
             id="path1246" />
          <path
             style="color:#000000;fill:#000000;stroke-linecap:round;stroke-linejoin:round;-inkscape-stroke:none"
             d="m 119.79102,110.23828 a 1.23472,1.23472 0 0 0 -1.24805,1.21875 l -0.0273,2.2793 a 1.23472,1.23472 0 0 0 1.2207,1.24805 1.23472,1.23472 0 0 0 1.24805,-1.22071 l 0.0273,-2.27734 a 1.23472,1.23472 0 0 0 -1.2207,-1.24805 z"
             id="path1248" />
        </g>
        <g
           id="path1676-2-9-9">
          <path
             style="color:#000000;stroke-width:2.46944;stroke-linecap:round;stroke-linejoin:round;-inkscape-stroke:none"
             d="m 107.60624,102.44024 -0.0269,0.50579 v 0"
             id="path1252" />
          <path
             style="color:#000000;fill:#000000;stroke-linecap:round;stroke-linejoin:round;-inkscape-stroke:none"
             d="m 107.67188,101.20703 a 1.23472,1.23472 0 0 0 -1.29883,1.16797 l -0.0274,0.50586 a 1.23472,1.23472 0 0 0 1.16797,1.29883 1.23472,1.23472 0 0 0 1.29883,-1.16797 l 0.0273,-0.50586 a 1.23472,1.23472 0 0 0 -1.16796,-1.29883 z"
             id="path1254" />
        </g>
        <g
           id="path1676-2-9-3-3">
          <path
             style="color:#000000;stroke-width:2.46944;stroke-linecap:round;stroke-linejoin:round;-inkscape-stroke:none"
             d="m 103.52614,97.934989 -0.0269,0.505791 v 0"
             id="path1258" />
          <path
             style="color:#000000;fill:#000000;stroke-linecap:round;stroke-linejoin:round;-inkscape-stroke:none"
             d="m 103.5918,96.701172 a 1.23472,1.23472 0 0 0 -1.29883,1.167969 l -0.0273,0.505859 a 1.23472,1.23472 0 0 0 1.16796,1.298828 1.23472,1.23472 0 0 0 1.29883,-1.167969 L 104.75977,98 a 1.23472,1.23472 0 0 0 -1.16797,-1.298828 z"
             id="path1260" />
        </g>
        <g
           id="path1676-2-9-3-3-1">
          <path
             style="color:#000000;stroke-width:2.46944;stroke-linecap:round;stroke-linejoin:round;-inkscape-stroke:none"
             d="m 95.965517,93.511159 -0.02686,0.505791 v 0"
             id="path1264" />
          <path
             style="color:#000000;fill:#000000;stroke-linecap:round;stroke-linejoin:round;-inkscape-stroke:none"
             d="m 96.03125,92.277344 a 1.23472,1.23472 0 0 0 -1.298828,1.167968 l -0.02734,0.50586 A 1.23472,1.23472 0 0 0 95.873047,95.25 1.23472,1.23472 0 0 0 97.171875,94.082031 l 0.02734,-0.505859 A 1.23472,1.23472 0 0 0 96.03125,92.277344 Z"
             id="path1266" />
        </g>
        <g
           id="path1676-2-0-4">
          <path
             style="color:#000000;stroke-width:2.46944;stroke-linecap:round;stroke-linejoin:round;-inkscape-stroke:none"
             d="m 107.60624,112.55576 -0.0269,5.40966 v 0"
             id="path1270" />
          <path
             style="color:#000000;fill:#000000;stroke-linecap:round;stroke-linejoin:round;-inkscape-stroke:none"
             d="m 107.61328,111.32031 a 1.23472,1.23472 0 0 0 -1.24219,1.22852 l -0.0273,5.41015 a 1.23472,1.23472 0 0 0 1.22852,1.24024 1.23472,1.23472 0 0 0 1.24218,-1.22852 l 0.0274,-5.4082 a 1.23472,1.23472 0 0 0 -1.22852,-1.24219 z"
             id="path1272" />
        </g>
        <g
           id="path1676-9-7">
          <path
             style="color:#000000;stroke-width:2.46944;stroke-linecap:round;stroke-linejoin:round;-inkscape-stroke:none"
             d="m 111.43105,114.41074 -0.0269,4.8384 v 0"
             id="path1276" />
          <path
             style="color:#000000;fill:#000000;stroke-linecap:round;stroke-linejoin:round;-inkscape-stroke:none"
             d="m 111.4375,113.17578 a 1.23472,1.23472 0 0 0 -1.24023,1.22852 l -0.0273,4.83789 a 1.23472,1.23472 0 0 0 1.22656,1.24219 1.23472,1.23472 0 0 0 1.24219,-1.22852 l 0.0273,-4.83789 a 1.23472,1.23472 0 0 0 -1.22852,-1.24219 z"
             id="path1278" />
        </g>
        <g
           id="path1676-2-1-8">
          <path
             style="color:#000000;stroke-width:2.46944;stroke-linecap:round;stroke-linejoin:round;-inkscape-stroke:none"
             d="m 111.27541,105.38165 -0.0269,5.40965 v 0"
             id="path1282" />
          <path
             style="color:#000000;fill:#000000;stroke-linecap:round;stroke-linejoin:round;-inkscape-stroke:none"
             d="m 111.28125,104.14648 a 1.23472,1.23472 0 0 0 -1.24023,1.22852 l -0.0273,5.41016 a 1.23472,1.23472 0 0 0 1.22852,1.24023 1.23472,1.23472 0 0 0 1.24023,-1.22851 l 0.0273,-5.40821 a 1.23472,1.23472 0 0 0 -1.22852,-1.24219 z"
             id="path1284" />
        </g>
        <g
           id="path1676-2-1-3-5">
          <path
             style="color:#000000;stroke-width:2.46944;stroke-linecap:round;stroke-linejoin:round;-inkscape-stroke:none"
             d="m 103.59939,102.65425 -0.0269,2.11944 v 0"
             id="path1288" />
          <path
             style="color:#000000;fill:#000000;stroke-linecap:round;stroke-linejoin:round;-inkscape-stroke:none"
             d="m 103.61523,101.41992 a 1.23472,1.23472 0 0 0 -1.25,1.21875 l -0.0273,2.11914 a 1.23472,1.23472 0 0 0 1.21875,1.25 1.23472,1.23472 0 0 0 1.25,-1.21875 l 0.0273,-2.11914 a 1.23472,1.23472 0 0 0 -1.21875,-1.25 z"
             id="path1290" />
        </g>
        <g
           id="path1676-2-1-3-6-0">
          <path
             style="color:#000000;stroke-width:2.46944;stroke-linecap:round;stroke-linejoin:round;-inkscape-stroke:none"
             d="m 99.681126,109.87097 -0.02686,2.11943 v 0"
             id="path1294" />
          <path
             style="color:#000000;fill:#000000;stroke-linecap:round;stroke-linejoin:round;-inkscape-stroke:none"
             d="m 99.697266,108.63672 a 1.23472,1.23472 0 0 0 -1.25,1.21875 l -0.02734,2.11914 a 1.23472,1.23472 0 0 0 1.21875,1.25 1.23472,1.23472 0 0 0 1.249994,-1.21875 l 0.0273,-2.11914 a 1.23472,1.23472 0 0 0 -1.21875,-1.25 z"
             id="path1296" />
        </g>
        <g
           id="path1676-2-1-3-6-7-3">
          <path
             style="color:#000000;stroke-width:2.46944;stroke-linecap:round;stroke-linejoin:round;-inkscape-stroke:none"
             d="m 99.791539,94.095897 -0.02686,2.11944 v 0"
             id="path1300" />
          <path
             style="color:#000000;fill:#000000;stroke-linecap:round;stroke-linejoin:round;-inkscape-stroke:none"
             d="m 99.806641,92.861328 a 1.23472,1.23472 0 0 0 -1.25,1.21875 l -0.02734,2.119141 a 1.23472,1.23472 0 0 0 1.220703,1.25 A 1.23472,1.23472 0 0 0 101,96.230469 l 0.0254,-2.119141 a 1.23472,1.23472 0 0 0 -1.218745,-1.25 z"
             id="path1302" />
        </g>
        <g
           id="path2837">
          <path
             style="color:#000000;stroke-width:2.46944;stroke-linejoin:round;-inkscape-stroke:none"
             d="m 116.59482,73.850187 v 25.010461 h 25.01046 v 0"
             id="path1306" />
          <path
             style="color:#000000;fill:#000000;stroke-linejoin:round;-inkscape-stroke:none"
             d="m 115.35938,73.849609 v 25.011719 a 1.2348435,1.2348435 0 0 0 1.23632,1.234372 h 25.00977 V 97.625 H 117.83008 V 73.849609 Z"
             id="path1308" />
        </g>
      </g>
      <path
         style="font-variation-settings:normal;opacity:1;fill:#87cdde;fill-opacity:1;stroke:none;stroke-width:9.33334;stroke-linecap:round;stroke-linejoin:round;stroke-miterlimit:4;stroke-dasharray:none;stroke-dashoffset:0;stroke-opacity:1;stop-color:#000000;stop-opacity:1"
         d="m 543.99291,326.59187 v -41.87931 l 7.3455,0.76775 c 25.412,2.65608 53.31467,22.46156 66.00233,46.84885 5.12282,9.84671 10.05612,25.84277 10.05612,32.60664 v 3.53537 h -41.70197 -41.70198 z"
         id="path8726"
         transform="scale(0.26458333)" />
    </g>
  </g>
</svg>
