<?xml version="1.0" encoding="UTF-8" standalone="no"?>
<!-- Created with Inkscape (http://www.inkscape.org/) -->

<svg
   width="132.47787mm"
   height="111.12737mm"
   viewBox="0 0 132.47787 111.12737"
   version="1.1"
   id="svg1"
   xmlns="http://www.w3.org/2000/svg"
   xmlns:svg="http://www.w3.org/2000/svg">
  <defs
     id="defs1" />
  <g
     id="layer1"
     transform="translate(-35.956383,-52.053965)">
    <g
       id="g11036"
       transform="translate(0.07602175,-32.070669)">
      <path
         style="fill:#000000;stroke:#000000;stroke-width:0.2;stroke-linecap:round;stroke-linejoin:round;stroke-dasharray:none;stroke-opacity:1"
         d="m 96.812621,194.78809 c -2.804045,-0.86439 -4.835012,-3.78839 -4.828666,-6.95187 0.0058,-2.89434 1.203737,-5.03181 3.580944,-6.38949 0.746217,-0.42618 1.810299,-0.8515 2.364625,-0.94515 l 1.007866,-0.17028 v -1.61924 c 0,-1.50177 -0.06902,-1.68991 -0.951489,-2.59364 l -0.95149,-0.97442 0.965256,-1.06842 c 0.908597,-1.00571 0.960564,-1.15883 0.885343,-2.60862 l -0.07991,-1.54019 -1.984375,-0.18604 c -4.257462,-0.39914 -9.081939,-2.10925 -12.814663,-4.54236 l -2.284796,-1.48931 h -2.114111 c -2.025908,0 -2.124877,-0.0283 -2.372146,-0.67868 -0.141919,-0.37328 -0.258035,-1.00828 -0.258035,-1.41111 0,-0.40284 -0.08326,-0.8157 -0.18503,-0.91746 -0.101766,-0.10177 -1.351923,0.97748 -2.778125,2.39833 -2.156522,2.14843 -2.593095,2.72007 -2.593095,3.39531 0,0.99002 -0.414831,1.44694 -1.313658,1.44694 -0.516327,0 -1.467839,0.79108 -3.978009,3.3073 l -3.299351,3.30729 h 2.178843 2.178842 v 1.55182 c 0,1.81026 -0.557738,2.73082 -1.962213,3.23869 -0.781411,0.28256 -0.907122,0.46161 -1.048547,1.49341 -0.353489,2.57899 -1.863871,4.7812 -4.042323,5.89391 -1.746355,0.892 -4.984577,0.92993 -6.572959,0.077 -2.277221,-1.22285 -4.083611,-3.8965 -4.095231,-6.06138 -0.0056,-1.03431 -0.05358,-1.09691 -1.076798,-1.40347 -1.414851,-0.4239 -2.101695,-1.53463 -2.103024,-3.40091 l -9.89e-4,-1.38906 h 3.175 c 2.367354,0 3.173215,-0.0841 3.167983,-0.33073 -0.0039,-0.1819 -0.398774,-1.87854 -0.877588,-3.77031 -0.777835,-3.07319 -0.931506,-3.4404 -1.442597,-3.44722 -0.787675,-0.0105 -1.014718,-0.31934 -1.320956,-1.7968 -0.250488,-1.20848 -0.231167,-1.29037 0.368998,-1.56382 0.348329,-0.15871 0.629197,-0.35875 0.624149,-0.44453 -0.005,-0.0858 -0.70027,-3.03841 -1.544938,-6.56138 -1.266076,-5.28061 -1.642342,-6.49173 -2.14271,-6.8969 -0.531739,-0.43058 -0.566264,-0.5675 -0.278615,-1.10498 0.261459,-0.48854 0.261269,-0.92954 -9.32e-4,-2.16508 l -0.329268,-1.55159 h -1.636506 c -3.160956,0 -5.626354,-1.47212 -7.14823,-4.26831 -0.622165,-1.14312 -0.79101,-1.82505 -0.882238,-3.56317 -0.09999,-1.90516 -0.03176,-2.33013 0.600289,-3.73852 1.729379,-3.85357 5.944875,-5.90381 9.704644,-4.71993 2.850085,0.89744 4.943259,3.09575 5.667793,5.95249 l 0.306711,1.20932 3.601671,0.0736 c 3.319948,0.0678 3.643642,0.0316 4.138255,-0.46302 0.672107,-0.67211 0.95372,-0.67348 1.524018,-0.007 0.418601,0.48889 0.780504,0.52917 4.75487,0.52917 h 4.301783 l 0.157199,-0.72761 c 0.941491,-4.35772 2.380423,-7.94298 4.489413,-11.18587 1.627106,-2.50193 5.765342,-6.65901 8.259193,-8.29681 l 1.915515,-1.25799 -1.078689,-1.58844 c -0.816289,-1.20204 -1.185711,-1.54423 -1.51864,-1.40668 -1.289085,0.53258 -1.298011,0.5239 -1.41557,-1.37691 -0.102258,-1.65341 -0.231476,-1.99008 -1.505433,-3.92235 -0.766466,-1.16254 -1.422509,-2.14264 -1.457874,-2.178 -0.03536,-0.0354 -1.807782,0.41222 -3.938706,0.99464 l -3.874408,1.05895 -4.575022,-2.60401 -4.575022,-2.604 -0.07729,-1.87732 -0.07729,-1.877322 1.40021,-0.401836 c 0.770115,-0.22101 4.745659,-1.303749 8.834542,-2.406087 l 7.434333,-2.00425 4.281336,2.516363 c 2.354735,1.384 4.396864,2.516363 4.538064,2.516363 0.142855,0 0.256727,0.871072 0.256727,1.963856 v 1.963853 l -0.859896,0.27135 c -0.472943,0.14924 -2.463455,0.70039 -4.42336,1.22478 -1.959906,0.52439 -3.602172,0.99214 -3.649481,1.03945 -0.04731,0.0473 0.529724,1.03861 1.282297,2.2029 1.210453,1.87265 1.547545,2.20254 2.921876,2.85941 0.85446,0.40839 1.553564,0.82601 1.553564,0.92804 0,0.10202 -0.299437,0.3817 -0.665415,0.6215 l -0.665414,0.43599 1.10325,1.64496 c 0.606788,0.90472 1.13251,1.68272 1.168273,1.72889 0.03576,0.0462 0.642408,-0.20667 1.348101,-0.56186 4.927921,-2.48027 12.256417,-3.46443 18.147674,-2.43708 2.59479,0.45249 6.2451,1.68297 8.53541,2.87719 0.87312,0.45527 1.65942,0.86251 1.74733,0.90499 0.0879,0.0425 1.19456,-1.35662 2.45924,-3.1091 2.26812,-3.14298 2.29567,-3.1998 2.02446,-4.17637 -0.48329,-1.74021 -0.4215,-1.84743 1.28432,-2.22852 l 1.56222,-0.34902 2.29246,-3.1415 2.29246,-3.141503 -0.65598,-0.694957 c -3.00578,-3.184416 -2.76229,-8.651603 0.52007,-11.67718 1.76591,-1.627764 3.27186,-2.220087 5.65571,-2.224529 3.43462,-0.0064 6.18177,1.737099 7.6411,4.849495 1.24153,2.647879 0.7058,7.054119 -1.05098,8.643982 -0.27759,0.251211 -0.5047,0.560324 -0.5047,0.686918 0,0.126594 0.74414,1.234233 1.65364,2.461424 1.3455,1.81546 1.78572,2.23332 2.36236,2.24236 1.00579,0.0158 1.58979,0.70045 1.49875,1.75713 -0.0647,0.75137 0.2619,1.3247 2.23254,3.91861 1.26961,1.67116 2.63083,3.19363 3.02494,3.38328 0.46931,0.22583 0.77481,0.63054 0.88537,1.17292 0.0928,0.45547 0.72952,1.5568 1.41482,2.4474 l 1.24601,1.61928 h 6.61947 6.61947 l 0.7734,0.77339 0.7734,0.7734 v 7.05216 7.05217 l -0.7734,0.77339 -0.7734,0.7734 h -7.05216 -7.05217 l -0.77339,-0.7734 c -0.74714,-0.74713 -0.7734,-0.85944 -0.7734,-3.30729 v -2.53389 l -0.72761,0.0115 c -1.54017,0.0244 -2.8869,0.45204 -3.5678,1.13294 -0.7959,0.7959 -1.66061,0.9011 -2.51098,0.30549 -0.5233,-0.36654 -1.21354,-0.29575 -7.79793,0.79975 -3.97309,0.66104 -7.35565,1.24847 -7.51679,1.30539 -0.20316,0.0718 -0.12779,0.82024 0.24584,2.44139 0.40938,1.77624 0.54185,3.29134 0.55141,6.30664 0.013,4.08643 -0.32125,6.30146 -1.44246,9.56033 l -0.49133,1.42807 1.17778,2.75723 c 1.64214,3.84429 1.59177,6.02971 -0.18384,7.97552 -0.50485,0.55324 -0.50028,0.55991 2.06207,3.01385 2.56123,2.45285 2.56926,2.45787 3.02673,1.89292 0.25228,-0.31155 0.56299,-0.56646 0.69047,-0.56646 0.12748,0 0.52167,0.83596 0.87597,1.85769 0.58782,1.69516 0.84216,2.03925 2.9071,3.93291 l 2.26293,2.07522 1.1195,-0.99347 c 1.37633,-1.22138 3.93971,-2.0086 5.66825,-1.74072 1.74663,0.27068 3.78565,1.38679 4.94992,2.70947 2.03489,2.31176 2.58951,6.05232 1.3089,8.82765 -0.94876,2.05617 -1.85917,3.02387 -3.71933,3.9534 -3.90968,1.95369 -8.48795,0.36236 -10.44947,-3.63208 -0.62578,-1.27434 -0.74242,-1.84458 -0.74225,-3.62861 1.8e-4,-1.74316 0.12548,-2.38402 0.71012,-3.63179 l 0.7099,-1.51513 -2.5094,-2.35516 c -2.31536,-2.17304 -2.61462,-2.36912 -3.86992,-2.53564 -1.79488,-0.2381 -1.8934,-0.32788 -1.2531,-1.14189 0.52143,-0.66289 0.52437,-0.7094 0.0708,-1.12091 -0.26026,-0.23613 -1.43625,-1.34729 -2.61332,-2.46926 l -2.14012,-2.03993 -0.96024,0.40121 c -0.70395,0.29413 -1.955,0.40121 -4.68742,0.40121 h -3.72718 l -1.50683,1.02242 c -4.4952,3.0501 -9.37051,4.68978 -15.46361,5.20077 l -2.050525,0.17196 v 1.48762 c 0,1.35865 0.08495,1.57462 0.979735,2.49097 l 0.97974,1.00334 -0.97974,1.00335 c -0.911184,0.93314 -0.979735,1.11523 -0.979735,2.60245 v 1.59911 l 1.612945,0.44844 c 1.30424,0.36261 1.88239,0.71789 3.02084,1.85634 2.90063,2.90063 3.00292,7.11185 0.2472,10.17687 -1.94682,2.16533 -4.678417,2.89596 -7.534921,2.01539 z m 4.303829,-0.43732 c 0.57741,-0.17299 1.61685,-0.82433 2.30987,-1.44742 3.21403,-2.88969 3.16562,-7.45857 -0.10958,-10.34152 -3.346915,-2.94607 -8.51807,-1.67833 -10.378194,2.54428 -0.546366,1.24028 -0.563095,4.11127 -0.03115,5.34511 1.376877,3.19363 4.930651,4.88179 8.209054,3.89955 z m -3.649845,-1.926 c -0.282474,-0.21366 -0.727697,-0.39225 -0.989383,-0.39688 -0.261687,-0.005 -0.619302,-0.33583 -0.794701,-0.73602 -0.175398,-0.40018 -0.54712,-1.06508 -0.826048,-1.47755 -0.4341,-0.64194 -0.462544,-0.87329 -0.197488,-1.60629 0.17031,-0.47098 0.309655,-1.16072 0.309655,-1.53275 0,-0.37204 0.164245,-0.81274 0.364989,-0.97934 0.200743,-0.1666 0.430684,-0.62766 0.510979,-1.02458 0.170499,-0.84283 1.624404,-1.74179 2.59502,-1.60452 0.49396,0.0698 0.658629,0.28848 0.762345,1.01213 0.140997,0.98378 0.932597,1.42818 1.347787,0.75664 0.18146,-0.29349 0.29412,-0.28324 0.63526,0.0578 0.37651,0.37641 0.36521,0.45933 -0.12273,0.90091 -0.49717,0.44993 -0.5374,0.45218 -0.5374,0.03 0,-0.32184 -0.1754,-0.43137 -0.595313,-0.37173 -0.478189,0.0679 -0.611468,0.27975 -0.67743,1.07673 l -0.08212,0.99219 h 1.471183 c 0.93601,0 1.47118,-0.11116 1.47118,-0.30559 0,-0.17174 0.23539,-0.0926 0.5374,0.18075 0.48794,0.44158 0.49924,0.5245 0.12273,0.90091 -0.33393,0.33382 -0.45645,0.347 -0.62915,0.0677 -0.14227,-0.2301 -0.65122,-0.31917 -1.51179,-0.26458 -1.289552,0.0818 -1.297318,0.0878 -1.297318,1.00472 0,0.69246 0.124015,0.9463 0.497462,1.01822 0.273606,0.0527 0.596726,-0.0647 0.718036,-0.26096 0.18146,-0.2935 0.29412,-0.28325 0.63526,0.0578 0.37651,0.3764 0.36521,0.45932 -0.12273,0.9009 -0.49717,0.44993 -0.5374,0.45218 -0.5374,0.0301 0,-0.32185 -0.1754,-0.43138 -0.595316,-0.37174 -0.440722,0.0626 -0.618568,0.29067 -0.68487,0.8783 -0.1582,1.40213 -0.814288,1.79574 -1.778102,1.06675 z m 1.415769,-2.32352 0.07728,-2.05052 h -0.689982 c -0.839525,0 -1.713527,-0.4366 -1.713527,-0.85598 0,-0.22936 0.08121,-0.22698 0.3175,0.009 0.174625,0.17463 0.710406,0.3175 1.190625,0.3175 h 0.873125 v -1.62851 c 0,-1.56091 -0.02008,-1.61033 -0.483854,-1.19062 -0.691444,0.62575 -1.209235,0.54347 -0.574479,-0.0913 0.291041,-0.29104 0.648229,-0.52916 0.79375,-0.52916 0.423858,0 0.305013,-0.45704 -0.165828,-0.63772 -0.236725,-0.0908 -0.606611,-0.0189 -0.821968,0.1598 -0.215357,0.17873 -0.637348,0.44868 -0.937758,0.59988 -0.655724,0.33004 -0.912163,0.93637 -0.396023,0.93637 0.202594,0 0.599469,0.18128 0.881944,0.40285 0.479359,0.37601 0.448977,0.39196 -0.455816,0.23942 -0.811232,-0.13678 -1.018291,-0.0721 -1.269006,0.39636 -0.16478,0.30789 -0.227107,0.6771 -0.138504,0.82046 0.0886,0.14337 0.0087,0.68197 -0.17745,1.19689 -0.429979,1.18909 -0.09883,1.77842 1.126559,2.0049 0.814312,0.15051 0.842776,0.18444 0.303329,0.36159 -0.758888,0.24922 -0.767865,0.83711 -0.01642,1.0756 0.425521,0.13506 0.707662,0.0247 1.064949,-0.41652 0.645838,-0.79758 0.932325,-0.46531 0.356515,0.41349 -0.444766,0.6788 -0.44196,0.68922 0.162597,0.60357 0.575475,-0.0815 0.620162,-0.21948 0.692451,-2.13767 z m -1.797067,-0.58294 c 0,-0.42758 0.684827,-1.0203 1.036723,-0.89728 0.143421,0.0501 -0.03117,0.35004 -0.387979,0.66645 -0.414581,0.36764 -0.648744,0.45096 -0.648744,0.23083 z m -1.587501,-0.27696 c 0,-0.0728 0.238125,-0.37041 0.529167,-0.66146 0.291042,-0.29104 0.588698,-0.52916 0.661459,-0.52916 0.274938,0 0.116428,0.50723 -0.283483,0.90714 -0.39991,0.39991 -0.907143,0.55842 -0.907143,0.28348 z m 54.175854,-2.66362 c 2.65176,-1.32143 4.13623,-3.78662 4.13174,-6.86138 -0.004,-2.45773 -0.78331,-4.24465 -2.54215,-5.826 -1.35851,-1.22142 -3.22358,-1.97921 -4.87125,-1.97921 -2.38959,0 -5.28134,1.98587 -6.50333,4.46606 -0.90148,1.82966 -0.85211,4.96361 0.10677,6.77874 1.42803,2.70319 3.64928,4.0854 6.58115,4.09523 1.33939,0.004 2.04417,-0.14877 3.09707,-0.67344 z m -5.88939,-2.76034 c -0.0999,-0.16161 0.30593,-0.26458 1.04271,-0.26458 2.2062,0 1.24464,-0.5073 -1.10886,-0.58501 l -2.3151,-0.0765 v -3.04271 -3.0427 l 0.99218,-0.0821 c 0.57436,-0.0475 0.99219,0.036 0.99219,0.19844 0,0.1543 -0.35719,0.28055 -0.79375,0.28055 h -0.79375 v 2.24896 2.24896 h 4.36563 4.36562 v -2.24896 -2.24896 h -0.79375 c -0.43656,0 -0.79375,-0.11906 -0.79375,-0.26458 0,-0.14552 0.41672,-0.26459 0.92604,-0.26459 h 0.92605 v 3.175 3.175 h -2.24896 c -1.32292,0 -2.24896,0.10895 -2.24896,0.26459 0,0.14552 0.47625,0.26458 1.05833,0.26458 0.58208,0 1.05833,0.11906 1.05833,0.26458 0,0.1555 -0.92083,0.26459 -2.23334,0.26459 -1.22834,0 -2.30693,-0.11907 -2.39686,-0.26459 z m 6.74687,-1.5875 c 0,-0.16569 -1.6316,-0.26458 -4.36562,-0.26458 -2.73403,0 -4.36563,0.0989 -4.36563,0.26458 0,0.1657 1.6316,0.26459 4.36563,0.26459 2.73402,0 4.36562,-0.0989 4.36562,-0.26459 z m -4.96357,-2.25837 c -0.12506,-0.22346 -0.57746,-0.49993 -1.00534,-0.61438 -0.75203,-0.20116 -0.77734,-0.2599 -0.7593,-1.76248 0.0178,-1.48163 0.0542,-1.56389 0.77796,-1.75745 0.41762,-0.11169 0.86162,-0.3859 0.98668,-0.60936 0.28781,-0.51429 0.89245,-0.52553 1.08636,-0.0202 0.0815,0.21234 0.53327,0.48587 1.00396,0.60784 0.84303,0.21845 0.8558,0.24508 0.8558,1.7842 0,1.53911 -0.0128,1.56574 -0.8558,1.78419 -0.47069,0.12197 -0.92247,0.3955 -1.00396,0.60785 -0.19391,0.50533 -0.79855,0.49408 -1.08636,-0.0202 z m 1.78857,-1.18121 c 1.54251,-1.54251 -0.80787,-3.93743 -2.42656,-2.47253 -1.05551,0.95522 -0.21288,3.0017 1.23594,3.0017 0.3638,0 0.89958,-0.23813 1.19062,-0.52917 z m -88.910541,7.76935 c 2.563341,-1.51421 2.045879,-5.42005 -0.820318,-6.19184 -2.020403,-0.54404 -4.196226,1.16928 -4.196226,3.30426 0,2.42218 2.939786,4.11435 5.016544,2.88758 z m -2.548315,-0.48213 c -1.399026,-0.60857 -1.838437,-2.25146 -1.023617,-3.82715 0.652643,-1.26207 2.561456,-1.45852 3.826755,-0.39384 0.657719,0.55343 0.81405,0.88704 0.81405,1.73718 0,1.3274 -0.339714,1.9642 -1.317621,2.46989 -0.934496,0.48325 -1.2167,0.48496 -2.299567,0.0139 z m 2.2521,-0.56704 c 0.332606,-0.23297 0.713338,-0.70922 0.846073,-1.05834 0.431398,-1.13466 -0.53168,-2.72243 -1.663798,-2.74301 -0.593425,-0.0108 -0.582621,0.13248 0.09234,1.2246 0.446568,0.72256 0.492053,0.97488 0.232186,1.288 -0.535588,0.64534 -1.558677,0.48336 -1.854059,-0.29356 -0.315882,-0.83083 -0.944082,-0.6957 -0.850583,0.18296 0.08386,0.78809 1.22221,1.82292 2.005267,1.82292 0.323308,0 0.859965,-0.19061 1.192571,-0.42357 z m -1.677621,-3.01964 c 0,-0.56713 -0.768791,-0.48522 -0.8803,0.0938 -0.06809,0.35359 0.03966,0.46135 0.393252,0.39325 0.267877,-0.0516 0.487048,-0.27076 0.487048,-0.48705 z m -2.778125,3.60575 c 0,-0.0561 -0.17786,-0.44308 -0.395245,-0.8599 -1.014176,-1.9446 0.232967,-4.72676 2.411186,-5.37895 0.531415,-0.15911 -0.21915,-0.23509 -2.478961,-0.25095 l -3.241146,-0.0227 0.0058,1.12448 c 0.0078,1.51136 0.772744,3.10251 2.120118,4.41009 0.969424,0.9408 1.578238,1.31805 1.578238,0.97797 z m 7.947207,-1.1796 c 1.257531,-1.30467 2.10696,-3.15366 2.10696,-4.58632 v -0.74662 l -3.241146,0.006 -3.241146,0.006 1.119014,0.50797 c 0.646089,0.29329 1.344544,0.87789 1.652656,1.38326 0.632383,1.03723 0.704822,2.92592 0.152808,3.98413 -0.595664,1.14188 0.0561,0.893 1.450854,-0.55404 z m 4.203327,-6.54708 c 0.705523,-0.59366 0.81405,-0.85821 0.81405,-1.98438 v -1.2994 h -9.921875 -9.921876 v 1.07573 c 0,1.32725 0.329209,1.97361 1.263423,2.48059 0.590377,0.32039 2.19082,0.39317 8.83659,0.40184 l 8.115638,0.0106 z m 34.096258,-2.78321 0.60617,-0.69007 -0.704152,-0.46137 c -0.678661,-0.44468 -0.724041,-0.44149 -1.253739,0.0882 l -0.54959,0.54959 0.626567,0.66695 c 0.344613,0.36683 0.636021,0.63766 0.647574,0.60185 0.01155,-0.0358 0.293779,-0.37563 0.62717,-0.75516 z m -34.475426,-4.46672 c 3.186851,-3.19394 3.423866,-3.5007 3.351721,-4.33808 -0.0935,-1.08522 0.702926,-1.79567 1.782551,-1.59012 0.600463,0.11432 1.038178,-0.24248 3.401134,-2.7724 1.491588,-1.59698 2.711979,-3.05454 2.711979,-3.23903 0,-0.18448 -0.588769,-1.23529 -1.308376,-2.33513 -3.504719,-5.35659 -5.20813,-11.38403 -4.999515,-17.69055 l 0.09018,-2.72625 -4.199974,-4.2e-4 c -3.897391,-4e-4 -4.236476,0.0387 -4.706661,0.54343 -0.634806,0.68139 -0.866849,0.68102 -1.503524,-0.002 -0.464921,-0.49903 -0.814484,-0.54644 -4.045203,-0.54862 l -3.536306,-0.002 -0.33805,1.66235 c -0.185928,0.9143 -0.624001,2.15029 -0.973496,2.74666 -0.835187,1.42514 -2.730405,3.15153 -3.93982,3.58886 -0.686905,0.24839 -0.965181,0.50621 -0.962326,0.89159 0.0074,0.99375 0.688016,2.84545 1.138634,3.09763 0.485745,0.27184 0.590029,1.0281 0.196709,1.42651 -0.203086,0.20572 0.976937,5.66998 2.750247,12.73541 0.117087,0.46651 0.339146,0.61282 0.930082,0.61282 0.671651,0 0.813408,0.13372 1.051817,0.99219 0.439329,1.58195 0.353074,2.16756 -0.359153,2.43834 l -0.637647,0.24244 0.62969,2.46299 c 0.346329,1.35465 0.760774,3.08808 0.920989,3.85206 l 0.291299,1.38907 h 4.416831 4.41683 z m 37.881836,-1.87293 c 1.39507,-0.15556 3.56327,-0.57723 4.81821,-0.93705 2.52551,-0.72411 7.13404,-2.88087 8.36713,-3.91576 l 0.79375,-0.66616 -17.13177,-0.01 c -9.422473,-0.005 -17.129691,0.0798 -17.127148,0.18892 0.0062,0.26751 2.900305,1.96816 5.022461,2.95136 3.173975,1.47051 7.825855,2.54175 11.453658,2.63756 0.696959,0.0184 2.408629,-0.0938 3.803709,-0.24936 z m 31.50473,-0.90779 c -0.34256,-1.11614 -0.51506,-1.1436 -1.25721,-0.2001 l -0.57103,0.72594 0.61797,0.17373 c 1.37811,0.38742 1.5189,0.30604 1.21027,-0.69957 z m -64.092306,-1.71979 c 0,-0.48491 -0.15921,-0.68407 -0.596495,-0.74616 -0.65011,-0.0923 -1.019349,0.47508 -0.755912,1.16159 0.09562,0.24918 0.398121,0.38153 0.755912,0.33073 0.437285,-0.0621 0.596495,-0.26125 0.596495,-0.74616 z M 52.069683,165.9422 c 0.05271,-0.0482 -0.01427,-0.54063 -0.148857,-1.09425 -0.22968,-0.94484 -0.300262,-1.00196 -1.150408,-0.93099 -1.190965,0.0994 -1.327141,0.27591 -1.13353,1.46899 l 0.162737,1.00283 1.087111,-0.17946 c 0.597911,-0.0987 1.130237,-0.21891 1.182947,-0.26712 z m 47.661457,-3.19704 c 0,-0.49599 -1.782686,-14.06546 -2.019773,-15.37412 l -0.155785,-0.8599 H 86.620434 c -6.014332,0 -10.985503,0.0893 -11.047047,0.19844 -0.08486,0.1505 2.019804,16.08229 2.167072,16.40417 0.01664,0.0364 4.971357,0.0661 11.010472,0.0661 10.008751,0 10.980209,-0.0385 10.980209,-0.43473 z m 1.05833,0.2656 c 0,-1.07912 -2.209703,-16.1686 -2.394894,-16.3541 -0.342279,-0.34285 -0.380545,-0.7219 0.808861,8.01231 0.581278,4.26852 1.056873,7.9297 1.056873,8.13594 0,0.20624 0.11906,0.37498 0.26458,0.37498 0.14552,0 0.26458,-0.0761 0.26458,-0.16913 z m 13.09688,-0.0954 c -0.10149,-0.16421 -2.51629,-0.26458 -6.36562,-0.26458 -3.95834,0 -6.20209,0.0957 -6.20209,0.26458 0,0.16906 2.29826,0.26458 6.36562,0.26458 4.17636,0 6.30937,-0.091 6.20209,-0.26458 z m 3.30284,-0.0661 c -0.002,-0.1819 -1.08395,-0.85118 -2.40334,-1.48729 -2.3705,-1.14288 -2.41638,-1.15306 -3.87614,-0.8599 -2.34271,0.47048 -3.60934,0.36984 -5.20705,-0.41376 l -1.44854,-0.71043 -1.47695,1.04116 c -0.81232,0.57264 -1.50256,1.16022 -1.53388,1.30574 -0.0364,0.16917 2.25709,0.29014 6.3599,0.33544 6.07014,0.067 6.43454,0.0992 6.74438,0.59531 0.25202,0.40355 0.61784,0.52446 1.5868,0.52446 0.8334,0 1.25777,-0.11185 1.25482,-0.33073 z m 9.46212,-0.0762 c 1.25685,-0.52515 1.85789,-1.08196 2.47674,-2.29448 0.99104,-1.94178 0.78041,-2.79759 -2.69634,-10.95544 -3.65905,-8.58559 -4.26729,-9.49883 -7.3313,-11.00742 l -1.7629,-0.86799 h -9.26621 -9.266202 l -1.455208,0.82081 c -2.326791,1.31243 -3.465373,3.17353 -4.070569,6.65367 -0.133866,0.76979 -0.084,0.8599 0.475863,0.8599 0.512168,0 0.658787,-0.17799 0.809818,-0.98305 0.101431,-0.54067 0.346725,-1.29691 0.545097,-1.68051 0.47881,-0.92592 2.200173,-2.41924 2.543841,-2.20684 0.153376,0.0948 -0.144933,0.5123 -0.682818,0.95567 -1.044531,0.86099 -1.574362,1.73148 -1.859347,3.05483 l -0.18518,0.8599 h 1.989782 c 1.094381,0 2.042679,0.0893 2.10733,0.19843 0.06465,0.10914 0.438662,2.69875 0.831136,5.75469 0.392477,3.05594 0.764787,5.71863 0.827357,5.91709 0.0925,0.29345 0.22436,0.28075 0.70584,-0.068 0.32563,-0.23585 0.83018,-0.59842 1.12123,-0.80573 0.32043,-0.22823 1.83372,-0.49214 3.83645,-0.66904 3.66821,-0.32401 10.06492,-1.31108 10.40476,-1.60554 0.12006,-0.10403 -0.20243,-1.51778 -0.71664,-3.14167 -1.2804,-4.04355 -1.92148,-7.10273 -1.56346,-7.46075 0.19701,-0.19701 0.36728,0.21678 0.57425,1.39553 0.1618,0.92157 0.80844,3.34246 1.43697,5.37975 0.84267,2.73137 1.24257,3.67867 1.52273,3.60708 0.20896,-0.0534 2.28494,-0.15426 4.61327,-0.22415 3.29708,-0.099 4.33674,-0.0482 4.70088,0.22938 0.39846,0.30376 -0.12942,0.35699 -3.57187,0.36019 -2.22169,0.002 -4.48591,0.0968 -5.03162,0.21043 l -0.99218,0.20667 v 3.95676 3.95676 h 3.97725 c 2.98061,0 4.22131,-0.10198 4.95125,-0.40696 z m -9.45767,-4.24107 c 0,-3.04372 -0.0392,-3.31328 -0.46302,-3.18516 -0.25466,0.077 -3.23295,0.61583 -6.61842,1.19745 -3.38547,0.58162 -6.31783,1.15174 -6.51636,1.26693 -0.90819,0.52696 -2.56677,2.26083 -2.49228,2.6054 0.0613,0.28328 0.48966,0.11207 1.64674,-0.65811 l 1.56395,-1.04101 1.53736,0.77606 c 1.71125,0.86384 2.91977,0.95936 5.25211,0.41513 l 1.45071,-0.33851 2.12117,1.13905 c 1.16664,0.62647 2.21046,1.14103 2.3196,1.14347 0.10914,0.002 0.19844,-1.49189 0.19844,-3.3207 z m -14.97102,-0.25777 c 0.56995,-0.50327 0.91721,-0.91503 0.77168,-0.91503 -0.14552,0 -0.7309,0.41176 -1.30085,0.91503 -0.56995,0.50326 -0.91721,0.91503 -0.77169,0.91503 0.14553,0 0.73091,-0.41177 1.30086,-0.91503 z M 76.286471,156.367 c -0.276702,-1.14602 -1.369193,-9.99844 -1.256439,-10.18088 0.06935,-0.11221 4.045854,-0.20401 8.836681,-0.20401 h 8.710595 l 0.126918,-0.59532 c 0.0698,-0.32742 0.256022,-1.26505 0.413816,-2.08363 0.497488,-2.58077 2.178351,-4.63905 4.642965,-5.68548 0.57425,-0.24382 2.047954,-0.5154 3.274903,-0.6035 2.12822,-0.15283 2.23931,-0.19217 2.41584,-0.85538 0.16865,-0.63363 0.0939,-0.72248 -0.84432,-1.00358 -1.4844,-0.44473 -2.769449,-1.83768 -3.092445,-3.35211 -0.146215,-0.68556 -0.20788,-1.39753 -0.137032,-1.58215 0.07085,-0.18463 -0.08859,-0.66818 -0.354312,-1.07456 -0.333558,-0.51013 -0.491035,-1.27443 -0.508672,-2.46877 -0.01405,-0.95145 -0.111842,-2.14662 -0.217315,-2.65594 -0.128922,-0.62256 -0.07719,-1.07684 0.157838,-1.38619 0.369574,-0.48643 6.052928,-2.16132 8.382608,-2.47036 1.23203,-0.16344 1.32263,-0.22846 1.47889,-1.06141 0.55806,-2.97474 4.16557,-3.87609 6.20714,-1.55088 2.72867,3.10779 3.07182,6.94388 0.70945,7.93094 -0.50643,0.2116 -1.0926,0.31879 -1.3026,0.23821 -0.31427,-0.1206 -0.40135,0.35962 -0.49222,2.71461 -0.0892,2.31108 -0.24314,3.18282 -0.80081,4.5345 -0.65564,1.58912 -0.67094,1.73053 -0.30371,2.80829 l 0.38671,1.13491 2.30249,0.13875 c 3.30456,0.19914 5.07721,0.93884 7.07618,2.95277 1.46506,1.47603 1.75061,1.97001 3.41636,5.91013 0.99973,2.36471 1.90438,4.29948 2.01035,4.29948 0.26261,0 1.22241,-3.65536 1.59787,-6.08542 0.45417,-2.93945 0.1607,-7.77078 -0.66697,-10.98021 -0.81235,-3.15 -3.00629,-7.73226 -4.88626,-10.20541 -4.54907,-5.98444 -11.63912,-10.25916 -18.89081,-11.38962 -3.0954,-0.48254 -9.372762,-0.15226 -12.09277,0.63626 -5.711957,1.65588 -9.667178,4.02203 -13.645136,8.163 -3.381646,3.52022 -5.888146,7.9917 -7.172716,12.79577 -0.633593,2.36953 -0.708113,3.11555 -0.71359,7.14375 -0.0066,4.88955 0.193337,6.1068 1.67674,10.20582 0.840502,2.32252 3.01355,6.33064 3.432229,6.33064 0.128342,0 0.183041,-0.20836 0.121554,-0.46302 z m 8.680918,-12.81906 c -0.646855,-0.64686 -0.205697,-2.06375 0.64256,-2.06375 0.435017,0 1.156607,0.74281 1.156607,1.19062 0,0.44782 -0.72159,1.19063 -1.156607,1.19063 -0.178783,0 -0.467935,-0.14288 -0.64256,-0.3175 z m -5.461872,-1.85804 c -0.226533,-0.32342 -0.411878,-0.89224 -0.411878,-1.26404 0,-1.14937 0.692849,-1.85209 1.826079,-1.85209 1.208847,0 1.966282,0.71345 1.966282,1.85209 0,1.13863 -0.757435,1.85208 -1.966282,1.85208 -0.735836,0 -1.111829,-0.15634 -1.414201,-0.58804 z m 2.417639,-0.32255 c 0.711918,-0.61952 0.725742,-0.67648 0.337138,-1.38907 -0.448425,-0.82227 -1.613926,-1.13086 -2.256613,-0.59748 -0.589136,0.48894 -0.47196,1.745 0.207163,2.22068 0.76661,0.53695 0.837335,0.52728 1.712312,-0.23413 z m 0.871911,-4.97639 c -0.158245,-0.61846 -0.396645,-1.45729 -0.529778,-1.86407 -0.267717,-0.81797 -0.353196,-0.74992 1.723142,-1.37192 2.063792,-0.61825 2.078131,-0.61019 2.613464,1.46792 0.264941,1.02847 0.44014,1.91083 0.389331,1.9608 -0.125209,0.12315 -3.272063,0.93175 -3.6261,0.93175 -0.155287,0 -0.411814,-0.50602 -0.570059,-1.12448 z m 2.729221,-0.10849 c 0.459084,-0.10015 0.69204,-0.29237 0.610827,-0.50401 -0.0722,-0.18816 -0.211044,-0.76728 -0.308532,-1.28694 -0.09749,-0.51966 -0.23034,-0.94483 -0.295226,-0.94483 -0.60001,0 -2.468968,0.65146 -2.468968,0.86061 0,0.14774 0.140398,0.73723 0.311995,1.30997 0.261075,0.87139 0.401415,1.0157 0.859896,0.88422 0.301345,-0.0864 0.881849,-0.22998 1.290008,-0.31902 z m -8.679607,-3.70564 c -1.309688,-0.36675 -2.434342,-0.71876 -2.499233,-0.78226 -0.131142,-0.12832 3.714219,-4.06871 3.970591,-4.06871 0.134933,0 1.57135,4.94231 1.57135,5.40658 0,0.24432 -0.534744,0.14667 -3.042708,-0.55561 z m 2.1412,-0.68379 c -0.09321,-0.32742 -0.30614,-1.16086 -0.473175,-1.85208 -0.167035,-0.69122 -0.377024,-1.25677 -0.466642,-1.25677 -0.242037,0 -2.776289,2.61799 -2.64064,2.7279 0.16152,0.13086 2.9458,0.90778 3.388345,0.94547 0.25236,0.0215 0.310393,-0.14903 0.192112,-0.56452 z m -32.064852,12.09625 c 1.677371,-0.70524 2.946384,-1.8853 3.859301,-3.58879 0.798064,-1.48916 0.909335,-1.93483 0.918502,-3.67881 0.01697,-3.22785 -1.462136,-5.63324 -4.428696,-7.20214 -1.535776,-0.81221 -4.573151,-0.83068 -6.276498,-0.0382 -2.710576,1.26116 -4.490927,4.03139 -4.495332,6.99473 -0.0034,2.25459 0.573172,3.89216 1.901592,5.40133 2.182251,2.47917 5.620652,3.33132 8.521131,2.11184 z m -5.549233,-2.47674 c -2.765748,-1.25618 -4.009543,-4.631 -2.739049,-7.43194 0.726085,-1.60073 1.202088,-2.08709 2.757766,-2.8178 1.681322,-0.78971 3.083716,-0.78707 4.793464,0.009 4.442899,2.06873 4.306674,8.43933 -0.220903,10.33061 -1.313213,0.54856 -3.269926,0.51024 -4.591278,-0.0899 z m 5.236722,-0.80879 c 1.43183,-0.98111 2.144256,-2.22444 2.2699,-3.96144 0.412134,-5.6977 -7.143363,-7.7183 -9.762612,-2.61086 -0.555681,1.08356 -0.656766,2.94279 -0.222607,4.09436 0.365447,0.96932 1.7568,2.42856 2.761897,2.89666 1.224411,0.57024 3.831787,0.34983 4.953422,-0.41872 z m -5.735904,-2.37278 c -0.886033,-1.7134 -0.30564,-4.14866 1.170697,-4.9121 0.976814,-0.50513 2.921106,-0.51939 3.595362,-0.0264 0.338795,0.24773 0.617342,0.28827 0.820764,0.11944 0.173069,-0.14363 0.370972,-0.15354 0.451887,-0.0226 0.07918,0.12811 -0.446002,0.81403 -1.16707,1.52425 -0.721068,0.71023 -1.311033,1.45291 -1.311033,1.6504 0,0.44776 -1.104524,0.32557 -1.257552,-0.13912 -0.05961,-0.18101 0.169192,-0.43691 0.508442,-0.56869 0.33925,-0.13177 0.948869,-0.59033 1.354708,-1.01902 0.652877,-0.68965 0.690763,-0.81856 0.32884,-1.11893 -0.224978,-0.18671 -0.878623,-0.35179 -1.452547,-0.36684 -1.350248,-0.0354 -2.409506,0.74369 -2.900862,2.13363 -0.345749,0.97805 -0.332198,1.15343 0.167099,2.1626 0.615582,1.2442 0.320918,1.80096 -0.308735,0.58335 z m 71.171426,-1.80773 c -0.0985,-0.25466 -0.2452,-0.79044 -0.32596,-1.19062 -0.0808,-0.40019 -0.25357,-0.72761 -0.38402,-0.72761 -0.13045,0 -0.3684,-0.28799 -0.52878,-0.63999 -0.25045,-0.54967 -0.45823,-0.63368 -1.47238,-0.59531 -0.99515,0.0377 -1.28117,-0.072 -1.81939,-0.69768 -0.88318,-1.02665 -0.83479,-2.14489 0.13478,-3.11445 0.83929,-0.8393 1.60785,-1.01483 1.60785,-0.36722 0,0.3242 0.10681,0.34902 0.52917,0.12299 0.72618,-0.38865 0.71636,-1.73329 -0.0155,-2.12498 -0.29958,-0.16032 -0.88569,-0.21661 -1.30247,-0.12507 -0.674,0.14804 -0.74164,0.1047 -0.61176,-0.39196 0.0961,-0.36766 -0.0652,-0.78322 -0.47221,-1.21649 -0.58566,-0.62341 -0.75345,-0.6548 -3.18435,-0.59575 -1.89557,0.046 -2.6838,-0.0353 -3.01645,-0.31141 -0.39191,-0.32525 -0.49345,-0.31479 -0.78256,0.0806 -0.490005,0.67011 -0.769644,5.7094 -0.3942,7.10369 0.39908,1.48205 1.79702,2.81728 3.1814,3.03865 1.0368,0.16579 1.03732,0.1665 0.87354,1.19076 l -0.16389,1.02487 h 4.16317 c 3.85677,0 4.14998,-0.0341 3.98403,-0.46302 z m 45.76314,-2.71198 c 0.0899,-0.14552 0.92338,-0.26458 1.85209,-0.26458 0.92871,0 1.76214,0.11906 1.85208,0.26458 0.0902,0.14593 1.27517,0.26459 2.64225,0.26459 3.72005,0 3.57546,0.33126 3.57546,-8.19165 v -6.79736 l -0.68224,-0.64144 c -0.67687,-0.63637 -0.73194,-0.64209 -6.9792,-0.72461 -7.35869,-0.0972 -7.98051,0.0287 -8.47939,1.71632 -0.19683,0.66584 -0.27054,3.11255 -0.21521,7.1435 0.0833,6.07063 0.0905,6.1375 0.7256,6.81302 0.59986,0.63801 0.80032,0.68222 3.09324,0.68222 1.34913,0 2.52534,-0.119 2.61532,-0.26459 z m -3.18702,-2.7661 c -0.65112,-0.65111 -0.92514,-2.26098 -0.38485,-2.26098 0.14552,0 0.26458,0.33873 0.26458,0.75274 0,0.92117 0.72731,1.62851 1.67448,1.62851 0.38873,0 0.70677,0.11906 0.70677,0.26458 0,0.54029 -1.60987,0.26627 -2.26098,-0.38485 z m 7.81723,0.38485 c 0,-0.14552 0.33874,-0.26458 0.75274,-0.26458 0.92117,0 1.62851,-0.72731 1.62851,-1.67448 0,-0.38872 0.11906,-0.70677 0.26459,-0.70677 0.54028,0 0.26626,1.60987 -0.38485,2.26098 -0.65112,0.65112 -2.26099,0.92514 -2.26099,0.38485 z m -7.1341,-1.04868 c -0.49064,-0.49064 -0.7169,-1.06798 -0.41855,-1.06798 0.31404,0 1.40374,1.33092 1.19522,1.4598 -0.13082,0.0808 -0.48032,-0.0955 -0.77667,-0.39182 z m 8.26804,-0.34038 c 0.59321,-0.60278 0.89161,-0.50294 0.61912,0.20717 -0.0819,0.21348 -0.38656,0.38814 -0.67697,0.38814 -0.51049,0 -0.50857,-0.0198 0.0579,-0.59531 z m -9.6006,-7.82523 c 0,-1.00089 0.98476,-1.89821 2.08318,-1.89821 0.50493,0 0.79112,0.10896 0.69494,0.26459 -0.0899,0.14552 -0.4357,0.26458 -0.76836,0.26458 -0.74224,0 -1.4806,0.76907 -1.4806,1.54219 0,0.31596 -0.11906,0.57448 -0.26458,0.57448 -0.14552,0 -0.26458,-0.33644 -0.26458,-0.74763 z m 10.84791,0.12717 c 0,-0.75009 -0.76126,-1.49621 -1.52657,-1.49621 -0.30738,0 -0.63245,-0.11906 -0.72239,-0.26458 -0.0971,-0.15707 0.21134,-0.26459 0.75894,-0.26459 0.6814,0 1.06574,0.18217 1.47082,0.69714 0.56846,0.72268 0.747,1.9487 0.28379,1.9487 -0.14553,0 -0.26459,-0.27921 -0.26459,-0.62046 z m -9.90578,0.11732 c -0.19158,-0.30998 0.62271,-1.34895 1.05724,-1.34895 0.21003,0 0.38188,0.0541 0.38188,0.12027 0,0.28342 -1.32446,1.41421 -1.43912,1.22868 z m 8.63152,-0.47745 c -0.70354,-0.75785 -0.61228,-1.05016 0.19327,-0.61904 0.3035,0.16243 0.55183,0.52926 0.55183,0.81518 0,0.62347 0.0208,0.62896 -0.7451,-0.19614 z m -4.24111,-0.98729 c 0.0503,-0.24273 0.21048,-0.43504 0.356,-0.42735 0.39272,0.0207 0.32057,0.61267 -0.0914,0.75 -0.22254,0.0742 -0.32173,-0.0468 -0.26458,-0.32265 z m -46.84036,10.97593 c 0.16029,-0.51604 0.35117,-2.08763 0.42417,-3.49241 0.26306,-5.0624 -1.62617,-7.72021 -5.48302,-7.71362 -1.30854,0.002 -6.42949,1.23816 -6.96022,1.67983 -0.11734,0.0976 0.10161,0.55183 0.48654,1.0093 0.69687,0.82818 0.71102,0.83176 3.28652,0.83176 2.1971,0 2.68926,0.0807 3.26813,0.53607 0.37482,0.29484 0.75609,0.77109 0.84726,1.05833 0.10518,0.33141 0.40097,0.52227 0.80939,0.52227 1.43488,0 2.26623,2.11294 1.26615,3.21802 -0.57144,0.63143 -0.17788,2.24912 0.51775,2.12819 0.49723,-0.0864 0.56129,0.14924 0.19705,0.72495 -0.15048,0.23785 -0.13577,0.58124 0.0389,0.90758 0.27412,0.5122 0.28981,0.51284 0.64545,0.0265 0.20048,-0.27417 0.49565,-0.9207 0.65595,-1.43675 z m -2.55692,0.80031 c 0.19468,-0.315 -0.42673,-2.66461 -0.70473,-2.66461 -0.11533,0 -0.2097,-0.1786 -0.2097,-0.39688 0,-0.54314 -0.32114,-0.49773 -1.00845,0.1426 -0.8119,0.75641 -0.7591,1.92633 0.11809,2.61632 0.73502,0.57817 1.55002,0.71481 1.80479,0.30257 z m 25.89418,-2.93324 c 8.06948,-1.34021 7.8518,-1.29248 7.8518,-1.72177 0,-0.48102 1.03523,-1.1846 1.74299,-1.1846 0.31179,0 0.85085,0.22331 1.1979,0.49626 0.57311,0.45073 0.80089,0.46844 2.48307,0.19298 l 1.85209,-0.30327 0.13229,-4.31772 c 0.13212,-4.31223 0.13322,-4.31852 0.85989,-4.9428 0.40019,-0.34379 0.72761,-0.68951 0.72761,-0.76826 0,-0.0788 -0.50602,-0.79839 -1.12448,-1.59919 -0.7373,-0.95466 -1.3183,-1.45634 -1.6874,-1.457 -0.73901,-10e-4 -1.21914,-0.60858 -1.11422,-1.40924 0.12376,-0.94438 -4.41539,-6.86924 -5.09694,-6.65292 -1.13172,0.35919 -2.26713,-0.96209 -1.82532,-2.12413 0.23678,-0.62278 0.0948,-0.91991 -1.36739,-2.8616 -0.89738,-1.191661 -1.67037,-2.215537 -1.71776,-2.275278 -0.0474,-0.05974 -0.2996,0.08454 -0.56047,0.320623 -0.71155,0.643941 -2.68033,1.441225 -4.0567,1.642815 -1.40056,0.20513 -4.0828,-0.38349 -5.37248,-1.179005 l -0.81538,-0.502959 -2.32512,3.204834 c -2.08908,2.87949 -2.30576,3.28705 -2.13435,4.01462 0.48491,2.05837 0.48609,2.05687 -2.07842,2.63679 -0.52947,0.11973 -1.27354,0.93114 -2.84427,3.10168 -1.16997,1.61674 -2.12722,3.02804 -2.12722,3.13622 0,0.10819 0.81062,0.79948 1.80137,1.53622 4.03578,3.00103 7.69494,7.80399 9.56716,12.55772 0.44504,1.12998 0.73243,1.52136 1.11717,1.52136 0.28489,0 3.39645,-0.47807 6.91458,-1.06238 z m 10.25045,-0.79902 c 1.16624,-0.62415 -0.015,-1.90532 -1.24149,-1.3465 -0.74023,0.33727 -0.81659,0.95508 -0.16497,1.33462 0.59222,0.34493 0.78116,0.34653 1.40646,0.0119 z m -46.938002,-1.90892 c -0.0734,-0.1819 -0.133452,-0.0331 -0.133452,0.33073 0,0.3638 0.06005,0.51263 0.133452,0.33073 0.0734,-0.1819 0.0734,-0.47956 0,-0.66146 z m 0.799198,-4.10104 c -0.332659,-0.74557 -0.606686,-0.75327 -0.994863,-0.028 -0.231606,0.43276 -0.223558,0.81 0.03392,1.59018 l 0.337561,1.02282 0.444498,-0.99487 c 0.330408,-0.73949 0.376318,-1.14767 0.178882,-1.59017 z m 15.425944,1.78797 c 0.64408,-0.3447 1.13283,-1.86914 0.90402,-2.81966 -0.49895,-2.07271 -2.16175,-4.48151 -3.47133,-5.02868 -1.62392,-0.67852 -3.5776,0.42368 -3.9371,2.22118 -0.15691,0.78458 -0.0967,0.86445 1.0615,1.40888 1.09153,0.51308 3.06546,2.39575 3.06546,2.92373 0,0.10986 0.11611,0.50514 0.25803,0.87842 0.27812,0.73151 1.19408,0.91136 2.11942,0.41613 z M 83.087691,110.50979 c 0.881928,-0.62799 0.962892,-0.92269 0.305428,-1.11173 -0.254662,-0.0732 -0.671381,-0.21891 -0.926042,-0.32375 -0.396754,-0.16334 -0.463021,-0.0351 -0.463021,0.89602 0,0.59766 0.07092,1.08664 0.157594,1.08664 0.08668,0 0.503395,-0.24623 0.926041,-0.54718 z m 39.488539,-2.3475 c 0.6181,-0.235 0.63928,-0.30898 0.38048,-1.3286 -0.26968,-1.06243 -0.28944,-1.07702 -1.23263,-0.90968 -1.29363,0.22951 -1.38819,0.36195 -1.07316,1.50291 0.2898,1.04957 0.69342,1.20373 1.92531,0.73537 z m 21.29176,-3.52372 c 0.0723,-0.62608 -0.0103,-0.72535 -0.60362,-0.72535 -0.80088,0 -1.14147,0.62342 -0.65851,1.20535 0.5,0.60247 1.16644,0.34902 1.26213,-0.48 z m -73.507371,-0.79149 -0.0018,-1.38906 -1.850406,-1.00775 c -1.017723,-0.55426 -1.969426,-0.93419 -2.114896,-0.84428 -0.145471,0.0899 -0.264492,-0.0222 -0.264492,-0.24903 0,-0.370644 -0.165185,-0.461891 -0.703819,-0.388779 -0.09606,0.01304 -0.28349,-0.170774 -0.416512,-0.408472 -0.155801,-0.278401 -0.425526,-0.373885 -0.758036,-0.268351 -0.348868,0.110727 -0.492581,0.05017 -0.443383,-0.18684 0.04773,-0.229929 -0.154957,-0.327618 -0.588666,-0.283722 -0.471556,0.04773 -0.556245,-0.0011 -0.294984,-0.169998 0.294799,-0.190603 0.25939,-0.294255 -0.181044,-0.529968 -0.816907,-0.437195 -0.846889,-0.401288 -0.846889,1.01428 0,1.33827 0.395244,1.95706 0.834364,1.30628 0.192607,-0.28544 0.229275,-0.26365 0.168856,0.10034 -0.05815,0.35033 0.836079,0.98372 3.626988,2.56902 2.037292,1.15723 3.733933,2.10885 3.770313,2.11472 0.03638,0.006 0.06535,-0.61441 0.06438,-1.37839 z m -6.612814,-2.85989 c 0,-0.15411 0.119063,-0.20661 0.264584,-0.11667 0.145521,0.0899 0.264583,0.21602 0.264583,0.28019 0,0.0642 -0.119062,0.11668 -0.264583,0.11668 -0.145521,0 -0.264584,-0.12609 -0.264584,-0.2802 z m 15.808855,2.08734 8.003646,-2.17163 v -1.423083 c 0,-1.230171 -0.06277,-1.404851 -0.463021,-1.288579 -0.254661,0.07398 -3.618177,0.98046 -7.474479,2.014402 -9.739881,2.61144 -8.73125,2.18077 -8.73125,3.7281 0,0.86286 0.111616,1.30409 0.330729,1.30741 0.181901,0.003 3.93237,-0.97222 8.334375,-2.16662 z m -7.820359,0.75796 0.0813,-0.83121 5.159375,-1.38775 c 2.837657,-0.76326 5.316112,-1.39151 5.507679,-1.39611 0.22524,-0.005 0.318723,0.24872 0.264583,0.71924 -0.09288,0.80722 -0.05733,0.79412 -7.573349,2.79141 l -3.520879,0.93564 z m 1.471683,-0.38229 c 0.148217,-0.45005 -0.254891,-0.41607 -0.876796,0.0739 -0.497359,0.39186 -0.493341,0.40231 0.127143,0.33073 0.352404,-0.0407 0.689748,-0.22276 0.749653,-0.40466 z m 1.387738,-0.33073 c 0,-0.14552 -0.178593,-0.26458 -0.396875,-0.26458 -0.218281,0 -0.396875,0.11906 -0.396875,0.26458 0,0.14553 0.178594,0.26459 0.396875,0.26459 0.218282,0 0.396875,-0.11906 0.396875,-0.26459 z m 1.455209,-0.26458 c 0.08994,-0.14552 -0.08163,-0.26458 -0.38126,-0.26458 -0.29963,0 -0.544782,0.11906 -0.544782,0.26458 0,0.14552 0.171567,0.26458 0.38126,0.26458 0.209693,0 0.454845,-0.11906 0.544782,-0.26458 z m 1.455208,-0.58578 c 0,-0.14552 -0.188331,-0.19231 -0.418514,-0.10398 -0.230183,0.0883 -0.475335,0.16059 -0.544782,0.16059 -0.06945,0 -0.0559,0.11387 0.03011,0.25303 0.189842,0.30717 0.933183,0.0605 0.933183,-0.30964 z m 1.514538,-0.38559 c 0.06564,-0.19714 -0.09487,-0.25812 -0.441096,-0.16758 -0.299351,0.0783 -0.544275,0.25624 -0.544275,0.39546 0,0.35126 0.85867,0.15268 0.985371,-0.22788 z m 1.528171,-0.35155 c 0.08994,-0.14552 -0.01507,-0.26458 -0.233354,-0.26458 -0.218281,0 -0.47046,0.11906 -0.560396,0.26458 -0.08994,0.14553 0.01507,0.26459 0.233353,0.26459 0.218281,0 0.47046,-0.11906 0.560397,-0.26459 z m 1.301277,-0.16059 c 0.4323,-0.16589 0.583221,-0.63316 0.204501,-0.63316 -0.117708,0 -0.44513,0.17481 -0.727604,0.38846 -0.524324,0.39658 -0.23067,0.53395 0.523103,0.2447 z m 1.212264,-0.61173 c 0,-0.70214 0.114205,-0.800057 1.256771,-1.07754 2.786972,-0.676842 2.762997,-0.678107 2.6666,0.140667 -0.07805,0.662913 -0.262323,0.787623 -1.806704,1.222673 -2.186778,0.61601 -2.116667,0.62547 -2.116667,-0.2858 z m 1.322917,-0.28601 c 0,-0.14552 -0.112036,-0.26458 -0.248968,-0.26458 -0.136933,0 -0.322553,0.11906 -0.41249,0.26458 -0.08994,0.14552 0.0221,0.26458 0.248968,0.26458 0.22687,0 0.41249,-0.11906 0.41249,-0.26458 z m 2.116667,-0.529166 c 0,-0.14552 -0.171567,-0.264583 -0.38126,-0.264583 -0.209693,0 -0.454845,0.119063 -0.544782,0.264583 -0.08994,0.145526 0.08163,0.264586 0.38126,0.264586 0.29963,0 0.544782,-0.11906 0.544782,-0.264586 z m -7.739063,-0.03533 c 4.402005,-1.188216 8.003646,-2.237046 8.003646,-2.330733 0,-0.09369 -1.766473,-1.200627 -3.925497,-2.459869 l -3.925496,-2.289529 -8.1101,2.168667 c -4.460554,1.192766 -8.081659,2.256321 -8.046899,2.363455 0.05741,0.176937 7.558265,4.648255 7.868408,4.690425 0.07276,0.01 3.733933,-0.9542 8.135938,-2.142416 z m 57.66062,-0.279409 c 1.59404,-0.749292 2.99212,-2.146427 3.80926,-3.806702 0.86216,-1.751756 0.8925,-4.698138 0.067,-6.501362 -0.7169,-1.565906 -2.27889,-3.13006 -3.9442,-3.94968 -1.89374,-0.932039 -4.75238,-0.901542 -6.59419,0.07035 -2.83415,1.495526 -4.46288,4.08442 -4.46288,7.093798 0,5.714767 5.96583,9.518721 11.12506,7.093597 z m -3.47534,-2.538843 c -0.10452,-0.104021 -0.56666,-0.189129 -1.02698,-0.189129 -0.64825,0 -0.8372,-0.114417 -0.83807,-0.507492 -6.1e-4,-0.279121 -0.14944,-0.556933 -0.33073,-0.617361 -0.4613,-0.153769 -0.41274,-1.300172 0.0628,-1.482657 0.21583,-0.08282 0.32566,-0.324553 0.24406,-0.537183 -0.20233,-0.527271 0.7608,-1.040742 1.17508,-0.626465 0.23043,0.230433 0.3798,0.230433 0.61023,0 0.39413,-0.394133 1.28238,0.05086 1.28238,0.642444 0,1.064168 1.66112,1.465753 2.67316,0.646254 0.55119,-0.44633 0.58095,-0.573053 0.28638,-1.219554 -0.27524,-0.604105 -0.45901,-0.702345 -1.12965,-0.603915 -0.70038,0.102794 -0.84611,0.0094 -1.16072,-0.743525 -0.68747,-1.645345 -2.56908,-1.954882 -3.88487,-0.639088 -0.43656,0.436563 -1.07374,0.79375 -1.41596,0.79375 -0.7921,0 -1.45375,0.65617 -1.45375,1.441711 0,0.706705 0.45461,1.149195 1.50444,1.464322 l 0.74452,0.223484 -0.81889,0.02274 c -1.27269,0.03534 -1.79343,-0.743206 -1.85277,-2.770087 -0.0569,-1.942817 0.52089,-3.028005 1.61217,-3.028005 0.34205,0 0.97909,-0.357188 1.41566,-0.79375 0.59011,-0.590118 1.03991,-0.79375 1.75328,-0.79375 1.24056,0 2.337,0.576868 2.72816,1.435366 0.21057,0.462157 0.51892,0.6813 0.95865,0.6813 1.10838,0 1.43309,0.599488 1.43309,2.645834 0,2.124942 -0.3162,2.641144 -1.62586,2.654248 -0.97026,0.0097 -1.76704,0.521908 -1.76704,1.135924 0,0.478976 -0.88741,1.054569 -1.17878,0.764582 z m 0.19343,-0.550422 c 0.35404,0.198131 0.45619,0.153339 0.45619,-0.200039 0,-0.250434 0.20588,-0.682831 0.45751,-0.960882 0.43363,-0.479155 0.43363,-0.518913 0,-0.761584 -0.25163,-0.140821 -0.45751,-0.469904 -0.45751,-0.731296 0,-0.693685 -1.9418,-0.570185 -2.08139,0.132379 -0.0534,0.268549 -0.29148,0.631565 -0.52917,0.806701 -0.39706,0.292573 -0.39455,0.333004 0.0309,0.497925 0.25466,0.09872 0.46302,0.385038 0.46302,0.636258 0,0.64049 0.26118,0.829979 0.76923,0.558082 0.25738,-0.137751 0.62136,-0.12858 0.89125,0.02246 z m -1.14972,-0.983802 c -0.40339,-0.486052 -0.0593,-1.248187 0.62423,-1.382847 0.65994,-0.130003 1.07183,0.880199 0.56538,1.386651 -0.52268,0.522682 -0.75328,0.521944 -1.18961,-0.0038 z M 133.00801,94.967 c 0.0576,-0.172806 -0.0838,-0.314192 -0.3142,-0.314192 -0.2304,0 -0.41892,0.188515 -0.41892,0.418923 0,0.467235 0.56959,0.385866 0.73312,-0.104731 z m 4.1896,-3.312592 c 0.21533,-0.678454 -0.72125,-1.510835 -1.47745,-1.313082 -0.38428,0.100489 -0.59246,-0.03891 -0.77496,-0.518939 -0.30684,-0.807047 -1.5062,-1.784163 -2.18996,-1.784163 -0.75225,0 -2.01125,0.722783 -2.34488,1.346176 -0.18314,0.342191 -0.44765,0.487495 -0.70658,0.388134 -0.65399,-0.250957 -1.66222,0.564223 -1.66222,1.343944 0,0.647169 0.0541,0.674647 0.98521,0.499978 0.54186,-0.101655 1.26492,-0.46454 1.60679,-0.806411 0.34187,-0.341872 0.95776,-0.69542 1.36863,-0.785664 1.01738,-0.223454 2.56782,0.466991 3.09053,1.376285 0.5367,0.933627 1.83926,1.09065 2.10489,0.253742 z"
         id="path11022" />
      <path
         style="fill:#4497d4;fill-opacity:1;stroke:none;stroke-width:0.176334;stroke-linecap:round;stroke-linejoin:round;stroke-dasharray:none;stroke-opacity:1"
         d="m 445.20549,601.79973 v -14.68354 l 1.92452,-0.41497 c 3.17109,-0.68377 5.74978,-0.82245 19.53918,-1.05081 7.25034,-0.12007 13.33882,-0.2684 13.52995,-0.32961 0.19114,-0.0612 0.6362,-0.17455 0.98903,-0.25186 1.22548,-0.26852 0.67377,-1.38278 -0.99142,-2.0023 -1.74946,-0.65087 -19.69104,-0.50406 -31.02558,0.25388 l -3.38249,0.22618 -0.47548,-0.58794 c -1.80145,-2.22752 -8.29835,-23.56095 -10.37344,-34.0625 -0.78753,-3.98551 -1.58621,-5.39509 -2.52417,-4.45483 -0.31328,0.31405 -0.38412,0.81435 -0.35959,2.5396 0.0553,3.88657 2.11798,12.66005 5.79768,24.65955 1.92834,6.28831 2.92502,10.20412 2.98762,11.73791 l 0.0486,1.19085 -1.48346,0.40585 c -4.92866,1.34837 -23.80858,4.11449 -37.2402,5.4561 -6.86105,0.68531 -12.09318,1.5016 -13.78361,2.15044 -0.6303,0.24193 -2.19573,1.20327 -3.47875,2.13631 -2.79083,2.02958 -3.58649,2.47211 -3.89323,2.16537 -0.24185,-0.24185 -1.39751,-8.261 -3.78909,-26.29256 -1.82054,-13.72616 -2.43497,-17.71512 -2.80711,-18.22404 -0.42913,-0.58688 -2.02482,-0.75389 -8.89723,-0.93123 l -6.32325,-0.16317 0.44035,-2.00454 c 0.62076,-2.8258 1.04717,-4.06813 2.12924,-6.20348 0.80978,-1.59803 1.40817,-2.32277 4.16423,-5.04348 3.28705,-3.24488 3.94718,-4.17104 3.42306,-4.80256 -0.70137,-0.8451 -3.03527,0.47657 -6.19609,3.5088 -3.52824,3.38471 -4.72519,5.58522 -6.02096,11.06914 -0.74419,3.14953 -1.07558,3.54936 -2.94181,3.54936 -1.24249,0 -1.36639,-0.0472 -1.49782,-0.57085 -0.19236,-0.76643 0.89913,-6.30341 1.90478,-9.66272 1.11134,-3.71236 3.39249,-8.28256 5.34114,-10.70076 2.54021,-3.15232 4.79908,-4.88976 10.65167,-8.1929 l 2.95024,-1.66508 h 34.90539 34.90539 l 5.06699,2.51906 c 6.10945,3.03732 7.99737,4.22777 10.39395,6.55403 4.97182,4.82594 7.94055,10.45392 18.34768,34.78263 10.16017,23.75138 12.41895,30.15449 12.42589,35.22453 0.003,1.96244 -0.0883,2.45645 -0.79495,4.31559 -2.12067,5.57933 -5.221,8.90374 -10.1408,10.87373 -3.09977,1.2412 -5.24861,1.4059 -20.09105,1.53983 l -13.355,0.12052 z"
         id="path11023"
         transform="scale(0.26458333)" />
      <path
         style="fill:#6ba07e;fill-opacity:1;stroke:none;stroke-width:0.498748;stroke-linecap:round;stroke-linejoin:round;stroke-dasharray:none;stroke-opacity:1"
         d="m 291.40725,498.8128 c -3.0269,-0.85392 -5.66665,-1.71576 -5.86609,-1.91521 -0.19945,-0.19945 1.75775,-2.52295 4.34933,-5.16333 3.70853,-3.77837 4.84166,-4.59898 5.32096,-3.85342 0.51373,0.79912 3.34876,11.14856 3.34876,12.22487 0,0.5849 -1.38241,0.33502 -7.15296,-1.29291 z"
         id="path11024"
         transform="scale(0.26458333)" />
      <path
         style="fill:#6ba07e;fill-opacity:1;stroke:none;stroke-width:0.498748;stroke-linecap:round;stroke-linejoin:round;stroke-dasharray:none;stroke-opacity:1"
         d="m 188.14068,627.01953 c -0.66141,-2.46974 -0.48772,-5.49185 0.36463,-6.3442 0.92602,-0.92602 6.21496,-1.07203 6.76214,-0.18668 0.20568,0.3328 0.55616,1.93436 0.77884,3.55903 0.44854,3.27247 0.45585,3.26623 -4.78056,4.0783 -2.45142,0.38017 -2.75579,0.27241 -3.12505,-1.10645 z"
         id="path11025"
         transform="scale(0.26458333)" />
      <path
         style="fill:#6ba07e;fill-opacity:1;stroke:none;stroke-width:0.498748;stroke-linecap:round;stroke-linejoin:round;stroke-dasharray:none;stroke-opacity:1"
         d="m 506.52917,639.02676 c -1.19781,-0.28368 -2.35263,-0.69057 -2.56627,-0.9042 -0.46411,-0.46412 2.91665,-5.04296 3.72344,-5.04296 0.65933,0 2.01037,3.61343 2.01037,5.37687 0,1.32737 0.0166,1.32438 -3.16754,0.57029 z"
         id="path11026"
         transform="scale(0.26458333)" />
      <path
         style="fill:#e38321;fill-opacity:1;stroke:none;stroke-width:0.498748;stroke-linecap:round;stroke-linejoin:round;stroke-dasharray:none;stroke-opacity:1"
         d="m 547.14045,487.5402 c -3.36614,-1.81565 -1.71233,-4.89536 2.62882,-4.89536 2.12765,0 3.47434,1.04282 3.47434,2.69038 0,2.36695 -3.47519,3.62248 -6.10316,2.20498 z"
         id="path11027"
         transform="scale(0.26458333)" />
      <path
         style="fill:#e38321;fill-opacity:1;stroke:none;stroke-width:0.498748;stroke-linecap:round;stroke-linejoin:round;stroke-dasharray:none;stroke-opacity:1"
         d="m 310.43664,415.71503 v -3.58886 l 2.9691,1.01168 c 1.63301,0.55642 2.96911,1.25906 2.96911,1.56142 0,0.63975 -4.6745,4.60462 -5.42874,4.60462 -0.28021,0 -0.50947,-1.61498 -0.50947,-3.58886 z"
         id="path11028"
         transform="scale(0.26458333)" />
      <path
         style="fill:#4497d4;fill-opacity:1;stroke:none;stroke-width:0.498748;stroke-linecap:round;stroke-linejoin:round;stroke-dasharray:none;stroke-opacity:1"
         d="m 457.26729,407.88783 c -0.54742,-0.83548 -1.17973,-2.44111 -1.40512,-3.56807 -0.46345,-2.31725 0.35865,-3.01354 4.423,-3.74612 2.93081,-0.52826 3.73382,0.28659 4.29142,4.3547 0.39771,2.90162 0.35402,2.99484 -1.7471,3.72729 -3.17116,1.10547 -4.45049,0.92887 -5.5622,-0.7678 z"
         id="path11029"
         transform="scale(0.26458333)" />
      <path
         style="fill:#4497d4;fill-opacity:1;stroke:none;stroke-width:0.498748;stroke-linecap:round;stroke-linejoin:round;stroke-dasharray:none;stroke-opacity:1"
         d="m 262.52814,631.47808 c -0.78795,-2.05335 0.0366,-4.00258 1.77886,-4.2051 2.38813,-0.2776 3.6639,1.38791 2.69388,3.51685 -0.83343,1.82918 -3.85643,2.29435 -4.47274,0.68825 z"
         id="path11030"
         transform="scale(0.26458333)" />
      <path
         style="fill:#2059d1;fill-opacity:1;stroke:none;stroke-width:0.498748;stroke-linecap:round;stroke-linejoin:round;stroke-dasharray:none;stroke-opacity:1"
         d="m 316.501,515.44197 c -0.67773,-0.83234 -2.09551,-5.48059 -2.10188,-6.89106 -0.004,-0.91124 3.51159,-2.54623 6.80279,-3.16366 l 2.15511,-0.4043 1.05303,4.40108 1.05303,4.40108 -2.06986,0.83546 c -3.37652,1.36286 -6.17935,1.6969 -6.89222,0.8214 z"
         id="path11031"
         transform="scale(0.26458333)" />
      <path
         style="fill:#2059d1;fill-opacity:1;stroke:none;stroke-width:0.498748;stroke-linecap:round;stroke-linejoin:round;stroke-dasharray:none;stroke-opacity:1"
         d="m 373.26122,663.90836 -2.13299,-2.20068 1.92362,-1.84295 1.92363,-1.84295 2.29495,1.55946 2.29495,1.55946 -2.08558,2.48417 -2.08559,2.48418 z"
         id="path11032"
         transform="scale(0.26458333)" />
      <path
         style="fill:#2059d1;fill-opacity:1;stroke:none;stroke-width:0.498748;stroke-linecap:round;stroke-linejoin:round;stroke-dasharray:none;stroke-opacity:1"
         d="m 539.51974,397.39848 c -1.13119,-1.13119 -0.97812,-3.61415 0.2519,-4.08616 2.40529,-0.92299 3.57495,-0.44958 3.57495,1.44696 0,1.90086 -1.02988,3.43096 -2.30931,3.43096 -0.39918,0 -1.08207,-0.35629 -1.51754,-0.79176 z"
         id="path11033"
         transform="scale(0.26458333)" />
      <path
         style="fill:#98a0b1;fill-opacity:1;stroke:none;stroke-width:0.498748;stroke-linecap:round;stroke-linejoin:round;stroke-dasharray:none;stroke-opacity:1"
         d="m 420.22243,503.37994 c -0.23442,-0.93399 -0.0916,-2.43251 0.31733,-3.33006 0.99822,-2.19085 0.98287,-2.2296 -0.88275,-2.2296 -3.07879,0 -4.01673,-4.88594 -1.67519,-8.72642 1.60117,-2.62615 1.66305,-4.54133 0.2434,-7.53302 -1.11828,-2.35661 -3.80772,-4.19441 -6.1381,-4.19441 -0.83988,0 -1.94063,-0.94498 -2.93429,-2.51904 -2.83647,-4.49325 -4.14809,-4.95734 -15.16335,-5.36524 l -9.80908,-0.36324 -2.24554,-2.5995 c -1.23504,-1.42972 -2.1425,-2.90858 -2.01658,-3.28636 0.30236,-0.90708 8.3443,-3.32811 16.86867,-5.07832 17.99293,-3.6943 26.92043,1.74353 29.26436,17.82521 1.08054,7.41357 -0.1773,20.67139 -2.42753,25.58654 -1.77164,3.86976 -2.75382,4.39342 -3.40135,1.81346 z"
         id="path11034"
         transform="scale(0.26458333)" />
      <path
         style="fill:#98a0b1;fill-opacity:1;stroke:none;stroke-width:0.498748;stroke-linecap:round;stroke-linejoin:round;stroke-dasharray:none;stroke-opacity:1"
         d="m 430.09417,472.0928 c -0.90399,-0.36476 -1.81046,-1.75884 -2.50677,-3.85525 -1.35357,-4.07521 -6.29176,-9.1986 -12.07737,-12.53032 -4.65636,-2.68143 -5.01474,-3.69877 -2.81909,-8.00259 2.3017,-4.51169 6.91838,-6.67595 12.14799,-5.69487 5.26186,0.98713 13.48814,12.8739 14.1115,20.39076 0.3948,4.76083 -1.07071,8.11718 -4.09626,9.38133 -2.60934,1.09026 -2.79805,1.10258 -4.76,0.31094 z"
         id="path11035"
         transform="scale(0.26458333)" />
      <path
         style="fill:#98a0b1;fill-opacity:1;stroke:none;stroke-width:0.498748;stroke-linecap:round;stroke-linejoin:round;stroke-dasharray:none;stroke-opacity:1"
         d="m 374.49152,471.88012 c -1.71288,-4.45634 -0.17201,-9.7241 2.25517,-7.70972 1.34076,1.11273 1.2012,4.45074 -0.30342,7.25782 l -1.23782,2.3093 z"
         id="path11036"
         transform="scale(0.26458333)" />
    </g>
  </g>
</svg>
